<?xml version="1.0" encoding="utf-8"?>
<!-- Generator: Adobe Illustrator 16.0.0, SVG Export Plug-In . SVG Version: 6.00 Build 0)  -->
<!DOCTYPE svg PUBLIC "-//W3C//DTD SVG 1.1//EN" "http://www.w3.org/Graphics/SVG/1.1/DTD/svg11.dtd">
<svg version="1.1" id="Capa_1" xmlns="http://www.w3.org/2000/svg" xmlns:xlink="http://www.w3.org/1999/xlink" x="0px" y="0px"
	 width="295.654px" height="376.626px" viewBox="0 -40.486 295.654 376.626" enable-background="new 0 -40.486 295.654 376.626"
	 xml:space="preserve">
<g>
	<g>
		<path fill="#FFFFFF" d="M254.936,177.403c-21.676-15.896-43.353-19.512-44.07-27.465c-0.729-7.946-10.849,5.063-29.64-17.349
			c-18.786-22.401-41.188-51.305-41.188-64.312s18.072-21.688,27.465-18.791c9.395,2.89,8.68-26.015-7.224-31.074
			c-15.897-5.056-20.229-2.884-27.462-15.169c-7.228-12.29-22.403,13.729-33.246,21.676c-10.838,7.948-53.475,8.678-62.148,8.678
			c-8.671,0-9.396,24.568-7.946,32.519c1.44,7.948,14.451,20.956,14.451,27.462c0,6.507,15.178-4.326,20.955-12.28
			c5.786-7.954,14.814,0.355,14.814,0.355s22.763,19.519,22.763,41.194c0,21.681,47.695,35.773,71.541,45.529
			c19.117,7.824,41.018,42.805,42.26,63.635c0.426,7.167-2.495,14.428-1.591,17.118c0.911,2.697,5.636,0.634,10.561-4.599
			l11.4-12.127c4.931-5.226,3.857-12.479-1.355-17.419c-5.729-5.427-11.21-12.937-8.522-20.236
			c3.039-8.249,15.208-3.447,24.44,1.693c6.281,3.49,16.933,2.532,15.431-4.5C265.774,187.956,262.626,183.047,254.936,177.403z"/>
		<path fill="#FFFFFF" d="M83.776,175.984c-2.201-6.845-11.369-6.521-15.897-3.563c-2.91,1.9-6.133,3.679-8.772,4.269
			c-6.506,1.438-3.611,2.165,0,10.105c2.742,6.027-8.787,22.862-4.083,32.848c3.061,6.498,16.312,9.057,23.359,7.692
			c9.864-1.89,8.178-11.819,8.178-21.753C86.56,197.313,86.56,184.653,83.776,175.984z"/>
		<path fill="#FFFFFF" d="M182.769,252.889c-5.313,2.282-11.187,3.856-14.545,1.844c-7.226-4.334-32.519-14.033-33.241,0.927
			c-0.729,14.97,33.883,33.378,59.25,39.54c16.752,4.075,29.112-20.063,10.057-40.203
			C199.344,249.772,189.376,250.073,182.769,252.889z"/>
	</g>
</g>
<g>
	<g>
		<path fill="#B71C1C" d="M153.071-40.486c-14.583,0-26.402,11.821-26.402,26.4c0,25.209,26.402,58.085,26.402,58.085
			s26.401-32.875,26.401-58.084C179.472-28.664,167.652-40.486,153.071-40.486z M153.071,0.49c-7.875,0-14.257-6.383-14.257-14.257
			s6.382-14.257,14.257-14.257c7.873,0,14.257,6.383,14.257,14.257S160.944,0.49,153.071,0.49z"/>
	</g>
</g>
</svg>
