<?xml version="1.0" encoding="utf-8"?>
<!-- Generator: Adobe Illustrator 16.0.0, SVG Export Plug-In . SVG Version: 6.00 Build 0)  -->
<!DOCTYPE svg PUBLIC "-//W3C//DTD SVG 1.1//EN" "http://www.w3.org/Graphics/SVG/1.1/DTD/svg11.dtd">
<svg version="1.1" id="Layer_1" xmlns="http://www.w3.org/2000/svg" xmlns:xlink="http://www.w3.org/1999/xlink" x="0px" y="0px"
	 width="88.838px" height="31.289px" viewBox="0 0 88.838 31.289" enable-background="new 0 0 88.838 31.289" xml:space="preserve">
<g>
	<g>
		<g>
			<path fill="#010202" d="M42.859,15.462C39.447,12.861,25.352,2.689,15.221,4.039C-0.7,5.166-2.121,26.418,15.732,27.277
				c8.958,0.431,19.575-7.19,26.716-11.564L42.859,15.462L42.859,15.462z M15.045,2.695C26.896,1.118,43.549,14.268,44.429,14.97
				c0.077,0.052,0.146,0.123,0.196,0.206c0.195,0.319,0.095,0.736-0.226,0.933c-0.416,0.253-0.831,0.508-1.246,0.762
				c-10.137,6.208-19.803,12.127-27.479,11.76C-5.401,27.619-4.838,4.87,15.045,2.695z"/>
			<path fill="#010202" d="M44.549,26.564c-0.221,0.331-0.688,0.398-0.995,0.149c-1.631-1.128-3.526-2.695-5.617-4.425
				c-2.344-1.937-4.938-4.081-7.625-5.996c-5.893,3.364-12.112,5.924-15.852,4.577c-4.881-1.03-8.794-6.518-2.774-10.199
				c5.688-3.317,12.452-0.313,18.702,4.016c5.928-3.47,11.433-7.642,13.345-9.12c0.296-0.228,0.721-0.174,0.95,0.122
				c0.228,0.296,0.173,0.722-0.122,0.95c-1.873,1.448-7.163,5.46-12.965,8.906c2.544,1.845,4.983,3.861,7.206,5.698
				c2.074,1.715,3.955,3.271,5.513,4.349c0.004,0.003,0.007,0.006,0.011,0.008C44.66,25.794,44.765,26.24,44.549,26.564
				L44.549,26.564z M29.078,15.437c-4.483-3.034-9.407-4.701-13.58-4.167c-1.43,0.184-2.421,0.796-3.005,1.61
				c-0.854,1.188-0.838,2.806-0.055,4.137c0.516,0.877,1.365,1.629,2.519,2.053C18.135,20.214,23.65,18.48,29.078,15.437z"/>
			<path fill="#010202" d="M45.981,15.474c3.413-2.602,17.506-12.771,27.639-11.423c15.92,1.126,17.342,22.379-0.514,23.238
				c-8.957,0.429-19.574-7.19-26.715-11.564L45.981,15.474L45.981,15.474z M73.792,2.707c-11.85-1.577-28.878,11.49-29.758,12.192
				c-0.036,0.041-0.27,0.272-0.194,0.532c0.085,0.293,0.488,0.619,0.6,0.688c0.416,0.254,0.831,0.509,1.246,0.762
				c10.136,6.209,19.802,12.128,27.48,11.762C94.24,27.631,93.677,4.882,73.792,2.707z"/>
			<path fill="#010202" d="M44.107,26.576c0.221,0.332,0.689,0.398,0.995,0.149c1.631-1.13,3.528-2.696,5.618-4.425
				c2.344-1.937,4.938-4.079,7.625-5.996c5.893,3.366,12.111,5.923,15.852,4.577c4.881-1.032,8.795-6.518,2.775-10.197
				c-5.688-3.319-12.453-0.315-18.701,4.014c-5.93-3.468-11.436-7.642-13.346-9.118c-0.296-0.23-0.722-0.176-0.95,0.121
				c-0.229,0.295-0.173,0.722,0.123,0.949c1.872,1.448,7.162,5.458,12.962,8.905c-2.543,1.846-4.982,3.862-7.205,5.699
				c-2.074,1.714-3.955,3.269-5.513,4.349c-0.004,0.003-0.006,0.006-0.01,0.008C43.998,25.807,43.894,26.253,44.107,26.576
				L44.107,26.576z M59.578,15.448c4.486-3.036,9.408-4.7,13.582-4.167c4.898,0.627,4.643,6.293,0.539,7.8
				C70.523,20.226,65.005,18.492,59.578,15.448z"/>
			<g>
				<path fill="#010202" d="M43.688,25.925c0.297-0.185,0.723-0.139,0.949,0.104c0.228,0.243,0.17,0.59-0.127,0.776
					c-1.66,1.035-3.313,2.02-4.965,2.799c-1.685,0.797-3.369,1.381-5.061,1.596c-1.736,0.22-3.462,0.051-5.174-0.669
					c-1.671-0.701-3.318-1.931-4.938-3.843c-0.212-0.251-0.135-0.596,0.173-0.77c0.309-0.173,0.73-0.11,0.942,0.142
					c1.484,1.752,2.964,2.865,4.444,3.487c1.437,0.605,2.886,0.745,4.344,0.561c1.504-0.191,3.036-0.727,4.592-1.461
					C40.454,27.896,42.064,26.938,43.688,25.925z"/>
				<path fill="#010202" d="M45.235,26.042c-0.298-0.185-0.723-0.139-0.951,0.104c-0.226,0.244-0.317,0.473-0.02,0.659
					c1.545,1.15,3.458,2.141,5.112,2.917c1.684,0.797,3.369,1.38,5.063,1.596c1.736,0.219,3.459,0.051,5.172-0.669
					c1.672-0.703,3.318-1.933,4.939-3.843c0.213-0.251,0.137-0.597-0.174-0.77c-0.309-0.173-0.729-0.11-0.941,0.141
					c-1.486,1.752-2.965,2.866-4.443,3.488c-1.438,0.604-2.887,0.745-4.346,0.561c-1.504-0.191-3.037-0.729-4.59-1.461
					C48.468,28.014,46.859,27.056,45.235,26.042z"/>
			</g>
			<g>
				<path fill="#010202" d="M43.854,5.907c0.269,0.204,0.653,0.153,0.859-0.114c0.205-0.267,0.153-0.65-0.115-0.854
					c-1.5-1.141-2.995-2.224-4.488-3.083c-1.523-0.878-3.046-1.521-4.575-1.756c-1.57-0.243-3.128-0.058-4.677,0.735
					c-1.512,0.774-3.001,2.128-4.463,4.232c-0.193,0.276-0.123,0.656,0.154,0.848c0.279,0.191,0.66,0.12,0.853-0.156
					c1.342-1.928,2.68-3.156,4.017-3.842c1.3-0.665,2.609-0.82,3.929-0.617c1.359,0.211,2.744,0.802,4.149,1.61
					C40.931,3.736,42.387,4.792,43.854,5.907z"/>
				<path fill="#010202" d="M45.254,5.778c-0.269,0.205-0.653,0.152-0.859-0.115c-0.205-0.267-0.288-0.521-0.02-0.725
					c1.396-1.268,3.125-2.356,4.621-3.212c1.525-0.877,3.049-1.521,4.578-1.758c1.568-0.242,3.127-0.058,4.676,0.735
					c1.512,0.775,3,2.129,4.465,4.234c0.191,0.276,0.121,0.654-0.156,0.847c-0.279,0.19-0.66,0.12-0.852-0.155
					c-1.342-1.929-2.682-3.157-4.018-3.842c-1.299-0.665-2.609-0.82-3.928-0.616c-1.359,0.209-2.746,0.8-4.15,1.608
					C48.175,3.608,46.72,4.662,45.254,5.778z"/>
			</g>
		</g>
	</g>
</g>
</svg>
