<?xml version="1.0" encoding="utf-8"?>
<!-- Generator: Adobe Illustrator 16.0.0, SVG Export Plug-In . SVG Version: 6.00 Build 0)  -->
<!DOCTYPE svg PUBLIC "-//W3C//DTD SVG 1.1//EN" "http://www.w3.org/Graphics/SVG/1.1/DTD/svg11.dtd">
<svg version="1.1" id="Layer_1" xmlns="http://www.w3.org/2000/svg" xmlns:xlink="http://www.w3.org/1999/xlink" x="0px" y="0px"
	 width="852.563px" height="298.436px" viewBox="0 15.436 852.563 298.436" enable-background="new 0 15.436 852.563 298.436"
	 xml:space="preserve">
<g id="LIONS">
	<g id="LEFT">
		<path fill="#212121" d="M77.46,134.903c0.287,3.539-0.757,6.143-2.971,8.295c-0.907,0.888-2.165,1.718-1.486,3.15
			c0.633,1.342,2.123,1.158,3.373,1.181c6.041,0.098,10.49-2.985,14.59-7.356c3.022,3.481,4.595,7.259,2.588,11.9
			c5.356,0.081,8.472-3.355,10.747-11.736c1.216,1.033,2.305,2.123,3.553,2.985c1.889,1.296,2.713,1.164,4.346-0.408
			c2.441-2.35,3.98-5.192,4.349-9.117c0.941,1.146,1.532,1.856,2.121,2.577c1.622,1.971,3.418,3.744,5.796,4.795
			c2.043,0.905,2.385,0.819,3.528-1.066c1.745-2.878,2.901-5.939,2.706-9.392c-0.069-1.234-0.132-2.508,1.109-3.558
			c1.297,0.961,1.761,2.371,2.288,3.673c1.808,4.462,2.61,9.158,3.109,13.92c0.476,4.545,0.491,9.144,1.783,13.584
			c0.932,3.203,2.129,6.269,4.147,8.955c2.003,2.678,4.595,4.463,7.864,5.219c2.006,0.463,2.813,0.084,3.839-1.713
			c0.588-1.035,0.817-2.185,1.096-3.314c0.815-3.294,3.042-5.197,6.269-5.775c6.9-1.209,14.45,5.447,14.276,12.459
			c-0.041,1.6-0.409,3.055-1.606,4.375c-2.431-1.904-4.131-5.103-8.08-4.687c0.313,1.181,1.332,1.464,2.009,2.04
			c2.325,1.977,4.443,4.104,5.397,7.113c1.124,3.533-0.299,6.771-3.884,8.516c-0.762-1.869-0.807-4.215-2.915-5.327
			c-0.734,0.713-0.131,1.306-0.02,1.908c0.247,1.34,0.647,2.665,0.736,4.015c0.255,3.779-2.341,6.206-6.151,5.881
			c-1.591-0.135-3.089-0.66-4.347-1.584c-2.155-1.586-4.544-2.627-7.069-3.386c-2.586-0.78-4.1-2.429-4.578-5.118
			c-0.395-2.234-1.819-4.061-2.553-6.111c-1.142-0.106-1.338,0.847-1.853,1.349c-2.685,2.578-5.093,2.47-7.428-0.435
			c-1.355-1.686-2.283-3.623-2.982-5.666c-0.444-1.276-0.873-2.129-2.618-1.922c-1.441,0.178-2.896-0.584-4.492-0.009
			c-0.991,0.363-1.722-0.688-2.133-1.62c-0.716-1.633-0.997-3.359-1.094-5.113c-0.119-2.141-0.219-4.28-0.362-6.412
			c-0.067-0.983-0.428-1.44-1.65-1.446c-3.626-0.03-5.241-1.625-5.616-5.251c-0.111-1.06,0.019-2.147-0.059-3.213
			c-0.131-1.79-0.969-2.162-2.5-1.153c-0.402,0.267-0.771,0.599-1.111,0.947c-10.441,10.669-23.366,14.634-37.964,13.952
			c-3.081-0.145-6.017,0.232-8.871,1.346c-5.434,2.094-7.905,5.898-7.15,10.949c0.927,6.181,4.669,9.914,10.427,10.412
			c4.171,0.354,8.183-0.488,12.009-1.981c7.43-2.913,14.968-5.544,22.222-8.905c3.762-1.75,7.84-1.275,11.778-0.517
			c5.335,1.024,9.767,3.756,13.472,7.703c2.998,3.19,5.954,6.438,9.03,9.563c1.781,1.803,2.182,3.787,1.444,6.14
			c-0.81,2.587-0.129,4.038,2.334,5.038c0.623,0.252,1.307,0.363,1.965,0.531c0.653,0.181,1.361,0.242,1.949,0.541
			c1.479,0.758,3.109,1.551,3.156,3.485c0.045,1.916-1.425,2.882-2.949,3.632c-2.711,1.325-5.425,2.654-8.195,3.85
			c-2.233,0.959-3.367,2.662-3.477,4.961c-0.323,6.91,1.963,13.008,6.136,18.428c1.108,1.436,2.642,2.46,4.592,1.67
			c1.763-0.709,2.77-2.057,2.806-4.051c0.013-0.865,0.201-1.736,0.34-2.604c0.686-4.203,3.072-6.641,7.351-7.002
			c4.947-0.414,9.438,1.053,13.355,4.121c1.095,0.855,1.924,1.944,1.902,3.455c-0.012,0.92-0.229,1.432-1.38,1.23
			c-1.431-0.258-2.902-0.287-4.359-0.361c-0.873-0.037-1.763,0.018-2.583,0.361c-0.607,0.267-1.35,0.466-1.27,1.367
			c0.071,0.771,0.569,1.184,1.273,1.422c1.143,0.394,2.289,0.396,3.458,0.134c4.355-0.931,7.355,1.194,9.612,4.548
			c1.971,2.926,1.913,6.275,1.22,9.598c-0.345,1.643-0.937,1.879-2.532,1.301c-2.589-0.942-4.943-2.314-6.947-4.224
			c-1.092-1.03-2.317-1.757-3.749-2.157c-1.178-0.326-2.356-0.479-3.117,0.77c-0.77,1.264-0.1,2.211,0.803,3.076
			c1.994,1.91,4.331,2.832,7.126,2.826c4.974-0.031,9.554,4.455,9.713,9.383c0.137,4.295-2.272,6.604-6.535,6.148
			c-2.144-0.238-4.23-0.762-5.803-2.428c-0.916-0.967-1.775-1.13-3.065-0.432c-2.065,1.109-4.365,0.799-6.58,0.363
			c-2.015-0.389-3.958-1.055-5.785-1.986c-6.003-3.061-11.779-6.438-16.354-11.545c-1.857-2.076-2.821-2.131-5.315-0.836
			c-0.685,0.344-1.421,0.658-2.167,0.819c-2.426,0.552-4.232-0.524-4.9-2.94c-0.5-1.793-0.512-3.646-0.258-5.506
			c0.28-2.023,0.439-4.076,0.131-6.115c-0.268-1.775-0.794-2.01-2.286-1.067c-1.084,0.67-2.2,1.257-3.444,1.533
			c-2.38,0.53-3.854-0.396-4.095-2.845c-0.328-3.344-0.263-6.651,2.91-8.924c1.024-0.736,1.931-1.64,2.915-2.435
			c2.524-2.034,4.738-4.342,6.244-7.247c2.179-4.203,2.134-8.427-0.947-12.043c-5.315-6.251-11.812-10.408-20.463-9.971
			c-3.27,0.171-6.324,1.09-9.109,2.826c-2.917,1.802-3.317,3.056-2.077,6.332c0.875,2.302,2.244,4.316,3.781,6.215
			c1.433,1.771,2.511,3.719,3.007,5.941c0.43,1.928,0.555,3.881-0.302,5.733c-0.784,1.69-1.596,1.907-3.106,0.694
			c-0.798-0.631-1.666-1.016-2.6-1.248c-1.894-0.478-2.487,0.051-2.397,2.025c0.026,0.579,0.118,1.155,0.171,1.733
			c0.212,2.342,0.156,4.674-0.216,6.993c-0.698,4.359-2.64,5.244-6.013,2.533c-2.084-1.681-4.378-1.854-6.605-1.08
			c-3.827,1.34-7.063,0.218-10.25-1.701c-1.673-1.012-3.271-2.135-4.666-3.5c-1.311-1.293-2.926-1.941-4.649-2.297
			c-2.446-0.496-3.924,0.709-4.149,3.225c-0.167,1.867,0.285,3.678,0.591,5.504c0.647,3.863,1.854,7.561,3.836,10.969
			c4.105,7.039,10.835,10.103,18.834,8.543c2.199-0.436,4.325-1.102,6.411-1.961c7.247-2.976,14.612-0.765,19.082,5.637
			c0.911,1.302,1.548,2.703,1.466,4.334c-0.047,0.931-0.431,1.447-1.48,1.271c-0.97-0.157-1.866-0.351-2.602-1.132
			c-1.21-1.284-2.689-2.257-4.253-3.059c-4.017-2.053-8.035-2.172-11.957,0.244c-3.291,2.041-6.72,3.543-10.931,3.043
			c-0.052,1.797,0.924,2.535,2.259,2.998c1.805,0.611,3.658,0.522,5.491,0.207c1.378-0.236,2.706-0.226,4.03,0.232
			c1.062,0.365,1.884,1.025,2.395,2.02c0.768,1.494,0.502,2.207-1.133,2.877c-2.804,1.156-5.735,1.859-8.715,2.377
			c-3.364,0.59-6.745,0.987-10.164,0.943c-3.206-0.031-5.125-1.436-6.058-4.456c-0.374-1.204-0.53-2.459-0.583-3.733
			c-0.105-2.561-0.673-5.037-1.967-7.262c-1.434-2.472-3.307-3.055-5.93-1.98c-0.358,0.146-0.687,0.361-1.045,0.517
			c-2.222,0.938-3.7,0.533-5.012-1.465c-1.145-1.746-1.568-3.752-1.938-5.771c-0.671-3.662-0.425-7.388-0.841-11.063
			c-0.085-0.769-0.173-1.53-0.265-2.336c-1.132,0.194-1.283,1.19-1.754,1.864c-0.727,1.037-1.422,2.104-2.44,2.881
			c-1.613,1.242-3.085,1.076-4.292-0.547c-0.518-0.688-0.982-1.487-1.215-2.314c-1.143-4.016-2.493-8.002-2.819-12.206
			c-0.283-3.678,0.065-7.237,2.909-10.028c0.572-0.556,0.587-0.941,0.189-1.713c-1.297-2.527-0.829-3.726,1.592-5.175
			c1.669-1.003,3.384-1.969,4.897-3.173c3.818-3.051,7.979-3.248,12.406-1.805c1.771,0.576,3.349,1.548,4.918,2.543
			c3.061,1.927,6.283,3.513,9.837,4.338c1.156,0.271,2.312,0.406,3.468,0.119c1.893-0.457,3.034-1.979,3.127-4.076
			c0.078-1.803-0.749-2.987-2.824-3.534c-3.073-0.81-6.181-0.496-9.271,0.035c-7.751,1.337-13.668-2.056-16.292-9.44
			c-0.553-1.555-0.898-3.182-1.241-4.804c-0.581-2.756-1.201-5.528-1.576-8.319c-0.228-1.675-1.016-2.82-2.21-3.928
			c-5.433-4.996-9.829-10.79-12.792-17.596c-3.994-9.155-3.976-18.118,1.387-26.817c1.581-2.57,3.001-5.24,4.496-7.862
			c5.498-9.642,10.997-19.287,16.489-28.931c1.986-3.49,3.46-7.181,4.359-11.106c0.464-2.021,0.569-4.061,0.39-6.098
			c-0.271-3.074-1.618-5.59-4.251-7.307c-2.352-1.534-4.349-0.949-5.309,1.709c-0.888,2.456-0.772,4.996,0.172,7.432
			c0.952,2.453,2.067,4.823,3.453,7.075c2.082,3.38,0.669,5.964-3.318,6.075c-1.154,0.032-2.323-0.204-3.476-0.369
			c-3.277-0.471-4.383,0.346-4.49,3.599c-0.125,3.902-1.72,7.169-4.241,9.987c-2.441,2.729-5.782,3.23-9.052,1.615
			c-2.132-1.053-2.642-3.178-0.894-4.702c5.065-4.404,6.069-10.199,5.789-16.414c-0.174-3.904-0.434-7.781,0.447-11.634
			c1.988-8.696,7.204-14.233,15.915-16.443c1.295-0.328,2.48-0.276,3.713,0.112c5.342,1.691,9.117,5.16,11.296,10.27
			c2.441,5.711,3.083,11.611,1.483,17.701c-2.068,7.883-5.57,15.15-9.446,22.259c-4.339,7.961-9.348,15.502-14.446,22.997
			c-3.362,4.947-5.392,10.382-4.565,16.502c0.704,5.226,3.952,8.549,8.547,10.674c2.17,0.998,4.204,0.322,6.008-1.066
			c1.182-0.918,2.11-2.102,2.607-3.473c1.811-5.016,5.514-8.484,9.65-11.425c3.633-2.582,7.018-5.235,8.788-9.472
			c0.213-0.511,0.579-0.738,1.129-0.679c0.193,0.016,0.39,0.009,0.584,0.028C70.592,137.966,74.226,137.729,77.46,134.903z"/>
		<path fill="#212121" d="M236.181,282.358c-11.093-0.133-22.189-0.707-33.212-2.139c-9.672-1.262-19.27-2.891-28.416-6.442
			c-1.254-0.493-2.405-0.514-3.691-0.241c-2.506,0.529-5.106,0.762-7.471-0.334c-2.317-1.066-4.661-1.103-7.104-1.123
			c-7.917-0.049-14.937-2.418-20.547-8.252c-0.745-0.779-1.505-1.466-2.595-1.809c-5.872-1.836-11.788-3.412-17.498-3.512
			c-2.447-0.01-4.396-0.002-6.313,0.412c-1.249,0.275-1.972,0.863-2.169,2.314c-0.411,3.03-0.447,6.036,0.25,8.995
			c1.356,5.767,2.234,5.256,6.479,4.618c3.591-0.545,7.179-0.592,10.775-0.188c7.55,0.863,14.655,3.229,21.316,6.793
			c9.886,5.291,20.496,8.473,31.313,11.063c17.585,4.239,35.476,6.218,53.517,6.86c3.513,0.125,7.024,0.195,10.532,0.22
			c0-5.623,0-11.529,0-17.238C239.627,282.368,237.905,282.37,236.181,282.358z"/>
		<path fill="#212121" d="M134.972,297.961c-5.474,2.596-10.794,3.227-16.302,2.514c-6.082-0.79-11.662-2.993-16.861-6.212
			c-3.664-2.267-7.463-4.181-11.798-4.833c-4.074-0.619-7.9-0.129-11.569,1.891c-4.798,2.654-10.027,3.883-15.473,3.387
			c-6.646-0.598-12.181-3.317-15.333-9.606c-0.64-1.276-1.241-2.638-0.888-4.634c2.795,3.339,5.874,5.084,10.248,3.111
			c-1.914-2.67-4.828-4.744-4.475-8.615c1.618,0.531,2.989,0.93,3.858,2.461c0.803,1.412,2.341,1.949,3.896,2.343
			c3.91,0.979,7.748,0.215,11.568-0.479c3.93-0.72,7.771-1.826,11.519-3.209c1.353-0.492,2.517-0.634,3.856,0.188
			c2.822,1.749,5.656,1.358,8.112-0.718c1.286-1.09,2.468-1.354,3.995-0.853c2.682,0.876,5.376,1.716,8.08,2.515
			c1.258,0.371,1.497,0.963,0.854,2.121c-0.56,1.026-0.806,2.174-0.899,3.356c-0.405,5.19,1.752,8.573,6.646,10.366
			c3.357,1.234,6.85,1.406,10.368,1.281c2.475-0.094,4.845,0.328,7.128,1.252C132.665,296.062,133.766,296.64,134.972,297.961z"/>
		<path fill="#212121" d="M136.924,296.481c-2.976-2.902-6.636-3.473-10.331-3.854c-1.735-0.18-3.495-0.141-5.243-0.162
			c-2.371-0.019-4.609-0.572-6.761-1.545c-1.36-0.623-2.499-1.524-3.42-2.668c-2.667-3.31-1.771-7.662,1.994-9.627
			c1.564-0.824,3.273-1.19,5.045-1.304c6.525-0.39,12.725,1.185,18.87,3.106c0.787,0.242,1.392,0.645,1.62,1.494
			c0.907,3.4,1.645,6.809,0.883,10.349C139.179,294.137,138.77,294.79,136.924,296.481z"/>
		<path fill="#212121" d="M79.843,265.848c2.541-0.95,5.062-1.482,7.698-1.342c4.554,0.261,7.375,4.082,6.331,8.541
			c-0.383,1.617-2.024,2.537-3.623,1.781c-1.296-0.607-2.614-1.369-3.39-2.646C84.616,268.477,84.342,268.215,79.843,265.848z"/>
		<path fill="#212121" d="M147.8,82.307c-4.528-2.317-7.839-5.926-10.858-9.803c0.633-0.977,1.519-0.85,2.217-1.135
			c1.258-0.52,2.542-0.984,3.757-1.59c0.778-0.388,1.556-0.964,1.434-2.002c-0.131-1.137-1.125-1.19-1.976-1.356
			c-0.384-0.076-0.778-0.08-1.158-0.153c-7.085-1.336-12.6-4.974-16.322-11.202c-1.165-1.951-1.148-1.975,0.599-3.416
			c0.92-0.758,1.66-1.639,2.139-2.732c0.333-0.766,0.393-1.441-0.326-2.104c-2.854-2.625-4.534-6.058-6.345-9.394
			c-0.857-1.571-1.867-2.975-3.514-3.783c-2.486-1.217-4.116-3.233-5.231-5.684c-0.563-1.235-0.903-2.568-1.435-3.823
			c-0.772-1.82-2.832-3.104-4.649-2.931c-1.999,0.188-3.188,1.285-3.519,3.289c-0.392,2.371-1.858,4.014-3.704,5.387
			c-5.87,4.375-12.081,8.187-18.664,11.398c-2.495,1.216-4.795,2.633-5.089,5.853c-0.065,0.72-0.566,1.447-0.999,2.082
			c-1.723,2.519-3.688,4.635-6.784,5.663c-3.653,1.215-5.287,5.675-2.941,8.253c2.612,2.867,3.907,6.196,4.977,9.764
			c1.777,5.902,5.295,6.814,9.879,2.6c1.509-1.388,2.74-3.022,4.027-4.616c2.244-2.772,4.904-5.044,8.564-5.675
			c1.709-0.297,3.42,0.021,4.405,1.6c1.047,1.683,0.554,3.392-0.531,4.916c-1.039,1.456-2.472,2.473-4.019,3.325
			c-3.003,1.657-6.202,2.801-9.524,3.622c-1.039,0.255-2.09,0.483-3.096,0.844c-4.019,1.429-5.315,4.345-3.749,8.328
			c0.396,1.005,0.947,1.927,1.664,2.73c1.543,1.734,3.425,2.092,5.535,1.079c0.981-0.471,1.736-1.235,2.557-1.92
			c1.874-1.567,4.808-1.756,6.839-0.499c1.328,0.821,2.186,2.001,2.041,3.609c-0.136,1.49-1.365,2.094-2.593,2.454
			c-2.152,0.635-4.357,1.136-6.614,0.566c-1.768-0.442-3.275-0.066-4.547,1.219c-2.471,2.499-5.568,3.881-8.824,4.968
			c-1.631,0.544-3.283,1.029-5.142,1.606c2.185,3.586,5.747,4.49,9.892,5.777c-6.667,2.616-10.145,8.16-15.939,11.387
			c5.215,1.999,9.931,2.738,14.653,0.026c0.815,3.575,0.378,4.977-2.199,7c-1.785,1.403-3.874,2.205-5.988,2.969
			c-0.98,0.356-2.147,0.298-2.921,1.186c4.437,3.479,9.531,3.287,14.129-0.481c0.764-0.624,1.3-1.625,2.756-1.921
			c-0.701,2.586,0.117,4.875-0.042,7.213c-0.166,2.426-1.177,4.633-1.961,7.418c6.448-2.583,9.573-7.705,12.87-12.927
			c0.282,5.745,4.444,9.673,6.139,15.087c3.399-3.588,3.667-7.479,3.114-11.537c-0.183-1.348-0.534-2.67-0.5-4.042
			c0.026-1.026,0.163-2.082,1.388-2.231c1.2-0.153,1.33,0.928,1.498,1.77c0.372,1.844,1.036,3.568,2.213,5.034
			c0.981,1.221,2.172,2.602,3.844,2.21c1.377-0.315,1.763-1.949,2.209-3.226c0.875-2.514,1.198-5.122,1.081-7.769
			c-0.068-1.527,0.582-2.464,1.996-2.766c1.439-0.309,2.422,0.498,3.045,1.718c0.308,0.601,0.456,1.279,0.693,1.918
			c0.617,1.662,1.438,3.22,2.748,4.434c1.194,1.103,2.532,2.739,4.196,2.002c1.425-0.629,1.455-2.596,1.562-4.173
			c0.242-3.49-0.713-6.746-1.898-9.964c-0.283-0.775-1.111-1.664-0.34-2.375c0.752-0.699,1.872-0.385,2.784-0.028
			c0.715,0.279,1.371,0.73,2.032,1.137c1.993,1.234,4.058,2.316,6.293,3.05c1.224,0.403,2.48,0.554,3.747,0.332
			c1.389-0.235,2.216-1.132,2.577-2.475c0.422-1.575-0.94-1.696-1.817-2.15c-3.368-1.757-5.962-4.347-8.064-7.462
			c-0.688-1.02-0.257-1.819,0.947-2.002c0.983-0.155,1.651,0.395,2.336,0.964c1.291,1.069,2.722,1.899,4.38,2.238
			c1.2,0.252,2.428,0.456,3.548-0.576c-1.109-1.212-1.879-2.485-1.934-3.986c-0.098-2.649-1.313-4.851-2.578-7.052
			c-0.519-0.902-1.062-1.789-1.576-2.654c0.817-0.786,1.763-0.75,2.534-1.132c0.877-0.433,1.77-0.829,2.458-1.54
			c1.367-1.424,1.211-2.357-0.614-3.274c-1.504-0.75-2.897-1.647-3.935-2.965c-1.133-1.437-2.047-3.001-1.476-5.134
			c2.249,0.882,4.182,2.052,6.349,2.64c1.708,0.462,3.435,0.802,5.161,0.149c0.87-0.328,1.489-1.048,1.578-1.953
			C149.33,82.624,148.362,82.594,147.8,82.307z M87.22,51.823c-0.967,2.917-3.662,3.88-6.358,2.869
			c-0.901-0.339-1.219-0.84-1.05-1.749c0.458-2.458,1.805-4.283,4.045-5.344c1.325-0.628,2.614-1.271,3.708-2.25
			c1.299-1.157,2.677-1.43,4.322-0.426C89.753,46.864,88.145,49.031,87.22,51.823z"/>
	</g>
	<g id="RIGHT">
		<path fill="#212121" d="M778.419,135.282c3.044,2.438,6.681,2.71,10.413,2.363c1.085-0.1,1.431,0.375,1.859,1.298
			c1.431,3.054,3.58,5.562,6.449,7.37c3.078,1.94,5.749,4.348,8.17,7.035c1.247,1.37,2.241,2.888,2.97,4.639
			c2.933,7.061,8.027,8.08,13.637,2.834c3.949-3.679,4.907-8.269,4.007-13.362c-0.721-4.072-2.312-7.822-4.688-11.236
			c-7.461-10.728-14.465-21.728-19.745-33.734c-1.693-3.833-3.14-7.755-4.091-11.853c-1.396-6.01-0.722-11.821,1.799-17.397
			c2.248-4.96,6.002-8.307,11.251-9.925c1.146-0.35,2.228-0.38,3.426-0.105c9.012,2.096,14.99,8.639,16.366,18.048
			c0.424,2.899,0.579,5.786,0.197,8.727c-0.574,4.432,0.039,8.746,1.955,12.825c0.835,1.769,1.856,3.338,3.44,4.627
			c2.265,1.846,1.801,3.961-0.898,5.142c-3.279,1.428-6.367,0.875-8.757-1.826c-2.433-2.753-4.033-5.913-4.142-9.721
			c-0.09-3.387-1.27-4.309-4.619-3.776c-1.439,0.23-2.878,0.526-4.352,0.271c-3.084-0.538-4.27-2.904-2.616-5.58
			c1.438-2.337,2.614-4.78,3.644-7.306c0.958-2.333,1.125-4.737,0.418-7.153c-0.919-3.117-3.131-3.833-5.782-1.96
			c-2.777,1.963-3.896,4.78-4.038,8.046c-0.18,3.879,0.948,7.508,2.331,11.07c1.016,2.641,2.438,5.087,3.836,7.542
			c6.561,11.501,13.007,23.076,19.729,34.482c5.255,8.917,5.288,17.9,1.171,27.115c-2.896,6.485-7.067,12.116-12.302,16.896
			c-1.621,1.475-2.441,3.119-2.747,5.234c-0.428,2.881-1.029,5.746-1.645,8.602c-0.301,1.428-0.696,2.85-1.227,4.195
			c-2.648,6.779-8.369,10.066-15.569,8.879c-2.322-0.387-4.634-0.57-6.979-0.529c-0.973,0.021-1.934,0.096-2.869,0.434
			c-1.975,0.7-2.661,1.555-2.658,3.348c0.004,2.185,1.018,3.664,2.907,4.211c1.256,0.369,2.496,0.184,3.745-0.104
			c3.752-0.891,7.101-2.64,10.312-4.704c2.835-1.814,5.865-3.051,9.313-2.996c2.503,0.035,4.8,0.664,6.804,2.229
			c1.769,1.381,3.67,2.562,5.631,3.663c2.456,1.384,2.798,2.689,1.439,5.227c-0.134,0.25-0.271,0.5-0.452,0.842
			c3.835,3.483,4.136,7.994,3.349,12.666c-0.528,3.151-1.465,6.252-2.232,9.367c-0.112,0.469-0.313,0.918-0.502,1.362
			c-1.705,4.03-4.158,4.339-6.893,0.903c-0.835-1.057-1.27-2.412-2.559-3.387c-0.521,1.159-0.338,2.326-0.424,3.424
			c-0.287,3.887-0.253,7.793-1.07,11.623c-0.283,1.348-0.682,2.645-1.359,3.838c-1.38,2.44-2.994,2.949-5.603,1.804
			c-0.175-0.081-0.339-0.201-0.512-0.28c-2.865-1.236-4.883-0.6-6.344,2.16c-1.299,2.447-1.749,5.141-1.917,7.882
			c-0.068,1.175-0.22,2.324-0.664,3.425c-1.007,2.522-2.807,3.898-5.589,3.881c-6.377-0.031-12.612-0.955-18.636-3.105
			c-2.415-0.868-2.688-2.533-0.731-4.253c1.339-1.171,2.978-1.453,4.664-1.21c1.452,0.217,2.897,0.367,4.359,0.296
			c1.184-0.06,2.333-0.313,3.292-1.054c0.539-0.428,1.064-0.988,0.878-1.727c-0.243-1.01-1.107-0.516-1.7-0.51
			c-2.937,0.037-5.653-0.854-7.982-2.477c-5.939-4.137-11.97-2.615-16.812,1.642c-1.258,1.099-2.479,1.812-4.238,1.593
			c-0.863-2.006-0.161-3.783,0.96-5.433c4.433-6.534,11.983-8.786,19.303-5.714c3.464,1.451,7.016,2.267,10.785,2.211
			c5.125-0.063,9.248-2.146,12.398-6.094c4.31-5.389,5.9-11.789,6.354-18.49c0.229-3.319-1.673-4.635-4.854-3.78
			c-1.526,0.407-2.866,1.125-4.053,2.215c-2.157,1.99-4.557,3.671-7.279,4.813c-2.202,0.922-4.408,1.269-6.812,0.464
			c-2.79-0.929-5.424-0.763-7.913,1.344c-2.572,2.185-4.293,1.386-5.221-1.985c-0.734-2.674-0.425-5.412-0.409-8.133
			c0.003-0.682,0.142-1.363,0.142-2.041c0-1.461-0.523-1.928-1.996-1.636c-1.131,0.235-2.188,0.636-3.125,1.448
			c-1.225,1.074-1.964,0.88-2.767-0.473c-0.776-1.313-0.882-2.781-0.772-4.25c0.222-2.914,1.395-5.449,3.218-7.693
			c1.606-1.977,3.042-4.064,3.92-6.463c1.141-3.108,0.751-4.449-2.069-6.1c-6.128-3.576-12.515-4.059-19.005-1.064
			c-3.562,1.652-6.814,3.789-9.515,6.679c-4.092,4.383-4.633,9.31-1.547,14.438c1.475,2.451,3.433,4.473,5.636,6.268
			c1.059,0.857,2.036,1.83,3.131,2.626c2.957,2.13,3.089,5.255,2.86,8.386c-0.211,2.985-2.006,3.994-4.924,3.041
			c-1.112-0.354-2.122-0.93-3.063-1.646c-0.853-0.631-1.464-0.293-1.741,0.654c-0.446,1.523-0.396,3.092-0.245,4.646
			c0.195,1.938,0.405,3.883,0.259,5.838c-0.351,4.521-3.296,6.181-7.272,4.085c-2.722-1.424-3.603-1.229-5.742,1.032
			c-5.458,5.75-12.029,9.833-19.431,12.563c-3.146,1.164-6.457,1.715-9.643,0.02c-1.245-0.665-1.83,0.23-2.493,0.83
			c-2.098,1.891-4.614,2.43-7.31,2.33c-2.548-0.086-4.166-1.52-4.732-3.979c-1.26-5.531,3.615-11.63,9.362-11.563
			c2.798,0.021,5.155-0.86,7.168-2.725c0.907-0.844,1.62-1.74,0.965-3.063c-0.553-1.111-1.542-1.37-3.327-0.846
			c-1.427,0.424-2.63,1.199-3.716,2.234c-2.014,1.889-4.413,3.18-6.978,4.17c-1.106,0.426-1.94,0.215-2.27-0.986
			c-1.206-4.375-0.684-10.373,4.756-13.528c1.734-1.001,3.523-1.625,5.576-1.07c1.232,0.334,2.49,0.406,3.739-0.024
			c0.802-0.274,1.468-0.73,1.448-1.613c-0.011-0.811-0.806-1.068-1.443-1.242c-2.107-0.586-4.251-0.348-6.386-0.1
			c-1.799,0.203-2.268-0.332-1.741-2.026c0.398-1.267,1.26-2.19,2.312-2.942c3.596-2.582,7.639-3.896,12.042-3.773
			c4.917,0.14,7.646,2.794,8.262,7.699c0.117,0.976,0.234,1.94,0.431,2.896c0.688,3.26,3.855,4.361,6.445,2.229
			c1.614-1.332,2.655-3.108,3.571-4.944c1.653-3.325,2.796-6.841,3.35-10.534c0.239-1.548,0.241-3.09-0.145-4.641
			c-0.439-1.821-1.399-3.153-3.144-3.946c-2.665-1.194-5.305-2.444-7.943-3.709c-2.499-1.202-3.753-2.688-3.352-4.241
			c0.548-2.145,2.387-2.939,4.267-3.544c0.829-0.267,1.744-0.271,2.554-0.577c2.661-0.986,3.404-2.515,2.498-5.189
			c-0.764-2.262-0.337-4.152,1.323-5.879c3.115-3.227,6.146-6.528,9.23-9.776c5.977-6.287,13.3-8.912,21.914-8.05
			c1.277,0.128,2.459,0.455,3.628,1.02c7.304,3.486,14.954,6.116,22.499,8.99c3.483,1.32,7.104,2.029,10.874,1.807
			c8.708-0.502,11.956-7.953,10.729-14.588c-0.493-2.641-2.346-4.465-4.649-5.721c-3.313-1.805-6.852-2.688-10.67-2.424
			c-9.119,0.623-17.856-0.908-26.101-4.934c-4.317-2.106-8.295-4.716-11.595-8.262c-0.134-0.145-0.271-0.285-0.419-0.414
			c-0.917-0.818-1.734-2.238-3.127-1.686c-1.339,0.535-0.721,2.042-0.709,3.134c0.016,1.297-0.242,2.529-0.672,3.715
			c-0.769,2.146-2.267,3.278-4.651,3.249c-2.045-0.021-2.107,0.061-2.213,2.027c-0.136,2.437,0.011,4.881-0.448,7.293
			c-0.198,1.047-0.377,2.119-0.743,3.113c-0.744,2.004-1.356,2.297-3.541,1.809c-1.647-0.383-3.152,0.665-4.816,0.38
			c-0.535-0.095-0.657,0.87-0.857,1.382c-0.672,1.729-1.376,3.432-2.393,4.999c-2.732,4.203-5.379,4.44-8.853,0.782
			c-0.263-0.277-0.563-0.52-0.925-0.863c-1.203,2.34-2.492,4.51-3.027,7.02c-0.437,2.066-1.613,3.47-3.657,4.17
			c-2.85,0.992-5.591,2.141-8.144,3.852c-2.229,1.497-4.753,2.125-7.46,0.729c-1.995-1.012-2.813-2.51-2.737-4.684
			c0.067-2.146,0.777-4.158,1.264-6.51c-2.703,0.969-2.527,3.439-3.374,5.219c-2.879-0.925-4.48-3.455-4.243-6.656
			c0.195-2.572,1.572-4.558,3.2-6.42c1.329-1.52,3.005-2.67,4.713-4.115c-3.028-0.428-3.028-0.428-8.3,4.404
			c-1.417-1.678-1.966-3.617-1.596-5.678c1.019-5.615,5.562-11.313,12.97-11.236c3.795,0.029,6.678,2.305,7.648,5.983
			c0.027,0.085,0.056,0.185,0.074,0.272c1.298,5.131,2.962,5.926,7.689,3.631c3.009-1.463,5.07-3.895,6.616-6.791
			c2.519-4.729,3.595-9.861,3.903-15.156c0.315-5.366,0.915-10.681,2.479-15.833c0.693-2.312,1.408-4.649,3.201-6.583
			c1.349,1.01,1.337,2.366,1.263,3.708c-0.208,3.458,0.952,6.516,2.729,9.384c1.095,1.766,1.336,1.817,3.32,0.988
			c2.117-0.888,3.787-2.361,5.25-4.087c0.816-0.958,1.592-1.949,2.608-3.204c0.249,0.969,0.454,1.733,0.642,2.504
			c0.656,2.761,2.271,4.9,4.258,6.845c1.091,1.065,2.187,1.047,3.445,0.394c1.5-0.784,2.531-2.094,3.981-3.377
			c1.014,2.781,1.438,5.683,3.29,7.954c1.856,2.276,4.123,3.803,7.008,4.088c0.641-0.52,0.315-0.969,0.175-1.409
			c-1.156-3.581-0.095-6.683,1.994-9.606c0.791-1.113,1.229-0.99,2.168-0.02c3.628,3.752,7.878,6.327,13.334,6.226
			c0.487-0.012,0.984,0.004,1.456-0.068c0.881-0.131,1.806-0.311,2.146-1.268c0.348-0.971-0.253-1.731-0.918-2.291
			c-2.197-1.85-3.489-4.154-3.753-7.021C777.97,136.403,777.934,135.912,778.419,135.282z"/>
		<path fill="#212121" d="M748.534,265.338c-0.216-6.041,1.05-6.453-6.645-6.811c-6.724-0.306-13.105,1.518-19.457,3.459
			c-1.379,0.426-2.306,1.42-3.258,2.393c-2.7,2.775-5.906,4.746-9.565,6.002c-3.916,1.348-7.941,1.916-12.071,1.703
			c-1.586-0.082-3.056,0.125-4.53,0.797c-2.559,1.172-5.302,1.357-8.012,0.697c-1.609-0.39-3.047-0.248-4.539,0.354
			c-3.717,1.496-7.555,2.582-11.461,3.447c-8.281,1.843-16.67,2.918-25.118,3.711c-8.378,0.783-16.774,1.205-25.171,1.268
			c0,5.709,0,11.615,0,17.238c17.342,0.092,34.598-1.202,51.683-4.711c13.692-2.819,26.981-6.752,39.368-13.504
			c8.661-4.721,18.021-7.321,28.035-6.975c1.967,0.066,3.848,0.602,5.797,0.715c2.316,0.133,2.875-0.201,3.793-2.33
			C748.401,270.405,748.631,267.881,748.534,265.338z"/>
		<path fill="#212121" d="M803.025,274.975c-0.095,3.248-0.289,3.605-4.361,8.244c2.692,2.248,4.888,1.713,10.417-2.676
			c-0.335,3.297-1.394,6.018-3.577,8.209c-4.369,4.396-9.715,6.365-15.875,6.017c-4.109-0.247-8.195-0.938-11.77-3.063
			c-6.363-3.771-12.668-2.916-19.043-0.252c-1.984,0.838-3.76,2.051-5.597,3.137c-6.665,3.955-13.787,6.304-21.623,6.133
			c-3.051-0.068-5.983-0.717-8.829-1.786c-0.607-0.235-1.468-0.347-1.565-1.114c-0.13-0.99,0.846-1.199,1.489-1.558
			c2.343-1.292,4.857-1.947,7.552-1.931c2.723,0.02,5.458,0.168,8.132-0.494c1.047-0.262,2.104-0.465,3.104-0.834
			c5.796-2.101,8.113-6.965,6.17-12.846c-0.821-2.468-0.834-2.512,1.681-3.354c2.219-0.746,4.472-1.359,6.697-2.084
			c1.494-0.479,2.748-0.362,4.043,0.73c2.555,2.186,5.453,2.537,8.37,0.738c1.267-0.775,2.337-0.555,3.586-0.137
			c5.162,1.775,10.404,3.246,15.839,3.924c2.524,0.316,5.038,0.404,7.541-0.217c1.566-0.396,3.061-1.061,3.866-2.424
			C800.176,275.817,801.552,275.477,803.025,274.975z"/>
		<path fill="#212121" d="M731.986,292.475c-2.736,0.012-5.437,0.298-8.077,1.037c-1.505,0.428-2.916,1.037-4.185,1.992
			c-1.357,1.022-1.74,0.953-2.654-0.465c-1.088-1.684-1.42-3.586-1.418-5.564c0-2.846,0.019-5.918,1.613-8.164
			c1.296-1.811,4.167-1.784,6.407-2.375c4.239-1.125,8.54-1.82,12.963-1.65c1.662,0.065,3.287,0.309,4.837,0.932
			c4.874,1.947,5.921,7.074,2.185,10.787c-2.497,2.481-5.692,3.205-9.056,3.459C733.731,292.53,732.854,292.475,731.986,292.475z"/>
		<path fill="#212121" d="M775.48,265.978c-3.117,1.086-5.156,3.19-6.629,5.946c-0.726,1.352-2.049,2.082-3.304,2.771
			c-1.913,1.037-3.692-0.049-3.934-2.239c-0.516-4.854,2.15-7.881,6.998-7.957C770.979,264.452,773.225,264.999,775.48,265.978z"/>
		<path fill="#212121" d="M781.964,127.079c-2.021-2.008-2.286-3.52-1.101-6.203c4.713,2.755,9.352,1.811,14.471-0.045
			c-2.144-1.583-4.295-2.304-5.635-3.993c-2.109-2.663-4.953-4.337-7.698-6.178c-0.61-0.41-1.512-0.508-1.765-1.395
			c6.598-2.417,7.041-2.699,8.878-5.683c-1.225-0.366-2.413-0.702-3.6-1.076c-3.825-1.215-7.529-2.64-10.432-5.602
			c-1.188-1.211-2.665-1.472-4.307-1.063c-2.359,0.586-4.664,0.134-6.884-0.641c-2.748-0.963-3.248-3.146-1.303-5.218
			c0.898-0.963,2.068-1.437,3.382-1.532c2.05-0.149,3.685,0.565,5.264,1.966c3.313,2.938,6.524,2.217,8.522-1.713
			c0.352-0.691,0.632-1.434,0.792-2.188c0.71-3.253-0.451-5.527-3.54-6.776c-1.26-0.506-2.602-0.794-3.923-1.129
			c-3.317-0.841-6.521-1.983-9.502-3.672c-1.619-0.913-3.115-2.018-4.106-3.654c-0.86-1.428-1.073-3-0.26-4.448
			c0.791-1.397,2.265-1.72,3.803-1.704c1.41,0.017,2.679,0.506,3.866,1.192c2.302,1.326,4.276,3.024,5.844,5.199
			c1.605,2.219,3.418,4.268,5.809,5.676c2.796,1.643,5.043,1.016,6.58-1.841c0.508-0.933,0.868-1.962,1.159-2.988
			c0.928-3.31,2.038-6.509,4.65-8.937c0.523-0.493,0.722-1.127,0.865-1.811c0.715-3.401-0.614-5.705-4.146-6.984
			c-3.765-1.364-6.249-4.14-7.28-7.792c-0.79-2.794-2.487-4.324-4.799-5.426c-6.169-2.95-11.93-6.559-17.53-10.454
			c-2.519-1.75-4.581-3.751-5.337-6.982c-0.662-2.795-3.646-3.66-6.026-2.069c-1.269,0.849-1.933,2.074-2.386,3.538
			c-1,3.225-2.541,6.196-5.646,7.866c-1.998,1.073-3.282,2.615-4.33,4.553c-1.557,2.916-3.106,5.852-5.402,8.293
			c-1.515,1.604-1.595,2.234-0.355,3.927c0.454,0.623,0.98,1.303,1.642,1.628c1.635,0.81,1.389,1.772,0.622,3.054
			c-3.747,6.336-9.259,10.116-16.458,11.482c-0.668,0.126-1.367,0.127-2.02,0.326c-1.457,0.447-1.688,1.562-0.536,2.609
			c1.107,1.001,2.527,1.406,3.887,1.953c0.932,0.38,2.148,0.2,2.88,1.37c-3.084,3.967-6.432,7.57-10.995,9.854
			c-1.541,0.771-1.606,1.764-0.265,2.759c0.917,0.685,1.991,0.721,3.073,0.663c1.877-0.103,3.603-0.774,5.327-1.458
			c1.241-0.491,2.341-1.332,3.822-1.608c0.28,2.331-0.69,4.05-2.104,5.59c-1.144,1.247-2.566,2.079-4.109,2.71
			c-1.07,0.439-1.13,1.17-0.645,2.118c0.527,1.006,1.396,1.621,2.373,2.075c1.034,0.486,2.12,0.861,3.378,1.364
			c-0.654,1.097-1.253,2.078-1.828,3.069c-0.972,1.686-2.015,3.367-2.224,5.352c-0.225,2.025-0.624,3.952-2.237,5.549
			c2.723,1.235,4.824,0.285,6.846-0.963c0.742-0.454,1.367-1.109,2.108-1.552c0.833-0.486,1.751-0.4,2.45,0.263
			c0.837,0.808-0.052,1.42-0.448,1.99c-2.151,3.083-4.85,5.558-8.245,7.24c-1.64,0.81-1.797,1.731-0.681,3.147
			c0.638,0.81,1.479,1.217,2.517,1.28c1.392,0.082,2.71-0.194,4.002-0.685c2.193-0.833,4.237-1.958,6.195-3.232
			c1.376-0.889,2.784-1.362,4.368-0.649c0.28,0.893-0.256,1.558-0.532,2.252c-0.962,2.36-1.58,4.807-1.953,7.313
			c-0.305,2.065-0.081,4.074,0.74,6.006c0.485,1.139,1.219,1.403,2.319,0.866c1.424-0.695,2.607-1.67,3.574-2.929
			c1.094-1.414,1.726-3.033,2.336-4.681c0.659-1.789,1.831-2.657,3.146-2.455c1.461,0.232,2.125,1.212,2.184,3.234
			c0.023,1.073,0.017,2.145,0.109,3.208c0.172,2.059,0.651,4.047,1.662,5.858c1.078,1.933,1.896,2.108,3.718,0.833
			c1.309-0.914,2.259-2.152,2.831-3.637c0.423-1.084,0.77-2.203,1.053-3.329c0.187-0.706,0.348-1.379,1.201-1.39
			c0.941-0.018,1.354,0.642,1.552,1.464c0.334,1.377-0.014,2.723-0.323,4.039c-0.575,2.432-0.503,4.846,0.072,7.234
			c0.447,1.875,1.124,3.678,2.978,4.797c0.732-1.667,1.176-3.32,2.09-4.646c2.127-3.085,3.465-6.411,3.802-10.802
			c1.922,3.187,3.427,5.892,5.491,8.204c2.935,3.29,5.151,4.707,7.58,4.72c-2.457-4.444-2.198-9.131-1.507-13.857
			c7.242,5.639,12.386,6.315,16.251,2.009c-1.246-0.405-2.454-0.75-3.625-1.187C785.805,129.706,783.664,128.769,781.964,127.079z
			 M767.838,45.264c1.166,1.02,2.531,1.736,3.949,2.393c2.164,0.995,3.361,2.851,3.954,5.118c0.27,1.032-0.089,1.584-1.139,1.933
			c-2.607,0.865-5.03,0.162-6.081-2.42c-1.136-2.804-2.4-5.423-4.97-7.334C765.288,44.011,766.584,44.171,767.838,45.264z"/>
	</g>
</g>
<g id="SUBTITLE">
	<g>
		<path d="M280.484,293.233c0-0.248,0.114-0.434,0.341-0.559c0.227-0.123,0.589-0.269,1.085-0.434
			c0.909-0.289,1.581-0.568,2.015-0.838c0.434-0.27,0.651-0.773,0.651-1.52v-13.33c0-1.321-0.155-2.355-0.465-3.1
			s-0.941-1.199-1.891-1.363c-0.372-0.084-0.558-0.352-0.558-0.807c0-0.412,0.165-0.66,0.496-0.744
			c1.116-0.289,2.004-0.59,2.666-0.898c0.661-0.311,1.426-0.775,2.294-1.396l1.364-0.93c0.041,0,0.113-0.041,0.217-0.124
			c0.103-0.082,0.217-0.124,0.341-0.124c0.083,0,0.165,0.042,0.248,0.124c0.083,0.083,0.124,0.187,0.124,0.312l-0.124,1.301
			c-0.042,0.332-0.083,0.734-0.124,1.21c-0.042,0.476-0.062,0.961-0.062,1.456c0,0.414,0.041,0.662,0.124,0.744h0.124
			c2.852-2.769,6.076-4.153,9.672-4.153c1.529,0,2.79,0.331,3.782,0.991c0.992,0.662,1.798,1.758,2.418,3.287h0.186
			c3.224-2.854,6.592-4.278,10.105-4.278c1.9,0,3.41,0.858,4.526,2.573c1.116,1.716,1.674,3.73,1.674,6.045v13.205
			c0,0.744,0.217,1.25,0.651,1.52c0.434,0.27,1.104,0.549,2.015,0.838c0.496,0.166,0.857,0.311,1.085,0.434
			c0.228,0.125,0.341,0.311,0.341,0.559s-0.093,0.426-0.278,0.527c-0.187,0.104-0.506,0.154-0.961,0.154
			c-1.116,0-1.984-0.063-2.604-0.187c-0.827-0.082-1.591-0.124-2.294-0.124c-0.744,0-1.529,0.042-2.355,0.124
			c-0.744,0.124-1.675,0.187-2.79,0.187c-0.827,0-1.24-0.228-1.24-0.683c0-0.289,0.113-0.496,0.341-0.62
			c0.227-0.123,0.589-0.248,1.085-0.371c0.868-0.207,1.529-0.466,1.984-0.775c0.455-0.311,0.682-0.836,0.682-1.58v-13.021
			c0-1.527-0.496-2.893-1.488-4.092c-0.991-1.197-2.149-1.798-3.472-1.798c-2.191,0-3.989,0.558-5.394,1.674
			c-1.158,0.91-1.736,2.397-1.736,4.464v12.771c0,0.744,0.248,1.271,0.744,1.582c0.496,0.31,1.178,0.568,2.046,0.773
			c0.95,0.209,1.426,0.538,1.426,0.992c0,0.455-0.414,0.682-1.24,0.682c-1.115,0-2.025-0.062-2.728-0.186
			c-0.91-0.082-1.695-0.124-2.356-0.124c-0.744,0-1.53,0.042-2.356,0.124c-0.744,0.124-1.674,0.186-2.79,0.186
			c-0.828,0-1.24-0.227-1.24-0.682c0-0.248,0.093-0.423,0.279-0.527c0.186-0.103,0.392-0.195,0.62-0.277
			c0.227-0.084,0.403-0.145,0.527-0.188c0.95-0.287,1.643-0.566,2.077-0.837c0.434-0.269,0.651-0.774,0.651-1.519v-13.021
			c0-1.527-0.496-2.893-1.488-4.092c-0.992-1.198-2.149-1.799-3.472-1.799c-2.191,0-3.989,0.559-5.394,1.675
			c-1.116,0.827-1.674,2.315-1.674,4.464v12.771c0,0.744,0.217,1.25,0.651,1.52s1.105,0.549,2.015,0.837
			c0.124,0.042,0.32,0.104,0.589,0.187c0.269,0.084,0.475,0.187,0.62,0.311s0.217,0.29,0.217,0.496c0,0.455-0.414,0.682-1.24,0.682
			c-1.075,0-1.964-0.062-2.666-0.186c-0.91-0.082-1.695-0.124-2.356-0.124c-0.662,0-1.447,0.042-2.356,0.124
			c-0.662,0.124-1.55,0.186-2.666,0.186C280.897,293.915,280.484,293.688,280.484,293.233z"/>
		<path d="M332.254,293.76c-0.786-0.559-1.437-1.262-1.953-2.108s-0.774-1.644-0.774-2.387c0-1.281,0.341-2.294,1.022-3.038
			c0.683-0.744,1.809-1.445,3.379-2.107l6.324-2.604c0.785-0.33,1.26-0.62,1.426-0.868c0.165-0.248,0.27-0.783,0.311-1.611
			l0.124-3.969c0.041-1.115-0.27-2.057-0.931-2.82c-0.662-0.765-1.57-1.146-2.728-1.146c-0.62,0-1.24,0.104-1.86,0.311
			s-1.137,0.475-1.55,0.807c-0.414,0.289-0.62,0.889-0.62,1.798l0.063,1.116c0,0.33-0.527,0.773-1.581,1.332
			s-1.892,0.838-2.511,0.838c-0.208,0-0.372-0.053-0.496-0.155s-0.187-0.237-0.187-0.403c0-0.66,0.217-1.373,0.651-2.139
			c0.434-0.766,1.043-1.479,1.829-2.139c1.404-1.281,2.985-2.336,4.743-3.162c1.756-0.826,3.255-1.24,4.494-1.24
			c1.488,0,2.718,0.527,3.689,1.581c0.971,1.054,1.436,2.366,1.395,3.937l-0.31,14.881c-0.042,0.867,0.144,1.572,0.558,2.107
			c0.413,0.538,0.972,0.807,1.675,0.807c1.032,0,1.798-0.228,2.294-0.683c0.206-0.206,0.372-0.31,0.496-0.31
			c0.205,0,0.371,0.062,0.495,0.186s0.187,0.29,0.187,0.496c0,0.166-0.063,0.383-0.187,0.65c-0.124,0.27-0.29,0.507-0.495,0.714
			c-0.662,0.661-1.375,1.188-2.14,1.581c-0.765,0.392-1.479,0.589-2.139,0.589c-1.901,0-3.41-1.074-4.526-3.226h-0.186
			c-1.364,1.117-2.666,1.934-3.906,2.449c-1.24,0.518-2.522,0.775-3.844,0.775C333.783,294.597,333.039,294.318,332.254,293.76z
			 M341.059,290.133c0.248-0.248,0.435-0.559,0.559-0.932c0.124-0.371,0.207-0.908,0.248-1.611l0.124-3.037v-0.372
			c0-0.33-0.042-0.567-0.124-0.714c-0.083-0.145-0.229-0.217-0.435-0.217c-0.248,0-0.662,0.104-1.239,0.311
			c-2.067,0.744-3.556,1.529-4.465,2.355c-0.909,0.828-1.363,1.633-1.363,2.418c0,1.033,0.299,1.84,0.898,2.418
			c0.6,0.58,1.313,0.867,2.14,0.867C338.847,291.622,340.066,291.125,341.059,290.133z"/>
		<path d="M373.701,294.659c-0.187-0.164-0.279-0.289-0.279-0.371l0.124-1.611c0.124-0.744,0.187-1.446,0.187-2.108v-0.372
			c-0.744,1.158-1.819,2.182-3.225,3.069c-1.406,0.889-3.038,1.333-4.897,1.333c-2.274,0-4.278-0.6-6.015-1.799
			c-1.735-1.197-3.08-2.778-4.029-4.742c-0.952-1.963-1.427-3.999-1.427-6.107c0-2.438,0.568-4.722,1.705-6.851
			c1.136-2.13,2.759-3.833,4.867-5.115c2.108-1.28,4.566-1.922,7.378-1.922c0.785,0,1.59,0.071,2.418,0.217
			c0.826,0.146,1.508,0.302,2.046,0.466c0.372,0.123,0.641,0.187,0.807,0.187c0.124,0,0.227-0.124,0.31-0.372
			c0.082-0.248,0.124-0.62,0.124-1.116v-8.804c0-1.57-0.248-2.666-0.744-3.286s-1.282-1.033-2.355-1.239
			c-0.372-0.082-0.559-0.352-0.559-0.807c0-0.372,0.165-0.62,0.496-0.744c2.19-0.537,3.823-1.043,4.898-1.52
			c1.073-0.476,1.674-0.732,1.798-0.774c0.331-0.124,0.599-0.187,0.806-0.187c0.248,0,0.393,0.123,0.435,0.371
			c0,0.248-0.073,1.035-0.218,2.356c-0.145,1.323-0.217,3.349-0.217,6.075v28.023c0,1.447,0.104,2.48,0.311,3.102
			c0.206,0.619,0.536,0.93,0.991,0.93c0.703,0,1.592-0.063,2.666-0.186h0.311c0.537,0,0.806,0.186,0.806,0.558
			c0,0.29-0.093,0.548-0.279,0.774c-0.186,0.229-0.383,0.342-0.589,0.342c-2.231,0.289-4.649,0.992-7.254,2.107
			c-0.455,0.248-0.786,0.371-0.992,0.371C374.021,294.907,373.887,294.825,373.701,294.659z M371.004,290.536
			c1.033-0.558,1.942-1.291,2.729-2.199l0.062-11.16c0-1.116-0.321-2.211-0.961-3.286c-0.641-1.074-1.55-1.953-2.728-2.636
			c-1.179-0.683-2.49-1.022-3.938-1.022c-1.116,0-2.253,0.31-3.41,0.931c-1.158,0.619-2.149,1.694-2.976,3.225
			c-0.827,1.529-1.24,3.574-1.24,6.138c0,2.853,0.537,5.084,1.612,6.696c1.073,1.611,2.313,2.707,3.72,3.285
			c1.405,0.58,2.728,0.867,3.968,0.867C368.916,291.374,369.97,291.094,371.004,290.536z"/>
		<path d="M390.627,292.985c-1.716-1.115-3.049-2.697-3.999-4.742c-0.952-2.047-1.426-4.412-1.426-7.1
			c0-2.314,0.547-4.484,1.643-6.51s2.553-3.627,4.371-4.807c1.818-1.178,3.802-1.767,5.952-1.767c2.48,0,4.515,0.733,6.107,2.2
			c1.591,1.469,2.387,3.339,2.387,5.611c0,1.281-0.62,1.922-1.86,1.922H390.72c-0.579,0-0.981,0.154-1.209,0.465
			s-0.341,0.92-0.341,1.83c0,1.942,0.423,3.74,1.271,5.394c0.847,1.653,2.004,2.968,3.472,3.938
			c1.467,0.972,3.069,1.457,4.805,1.457c2.438,0,4.464-0.932,6.076-2.791c0.248-0.33,0.475-0.496,0.682-0.496
			c0.331,0,0.496,0.207,0.496,0.621c0,0.785-0.372,1.652-1.116,2.604c-0.909,1.199-2.107,2.139-3.596,2.82
			c-1.488,0.683-3.059,1.023-4.712,1.023C394.316,294.659,392.341,294.101,390.627,292.985z M396.486,275.874
			c1.941,0,3.472-0.104,4.588-0.311c0.331-0.041,0.496-0.496,0.496-1.363c0-1.199-0.527-2.222-1.581-3.068
			c-1.055-0.848-2.306-1.271-3.751-1.271c-0.91,0-1.851,0.279-2.821,0.838c-0.972,0.559-1.767,1.25-2.387,2.076
			c-0.62,0.827-0.931,1.652-0.931,2.48c0,0.412,0.248,0.619,0.744,0.619H396.486z"/>
		<path d="M421.409,293.233c0-0.289,0.114-0.496,0.341-0.62s0.589-0.247,1.085-0.372c0.95-0.248,1.632-0.525,2.046-0.837
			c0.413-0.31,0.62-0.815,0.62-1.519v-13.454c0-2.729-0.93-4.236-2.79-4.526c-0.414-0.039-0.62-0.311-0.62-0.806
			c0-0.454,0.187-0.702,0.559-0.744c2.521-0.578,4.689-1.612,6.51-3.101c0.372-0.289,0.661-0.435,0.868-0.435
			c0.248,0,0.372,0.104,0.372,0.312c0,0.455-0.063,1.238-0.188,2.354c-0.041,0.496-0.113,1.416-0.217,2.759
			c-0.104,1.344-0.154,2.43-0.154,3.256v14.385c0,0.66,0.217,1.156,0.65,1.486c0.434,0.332,1.104,0.621,2.016,0.869
			c0.496,0.123,0.857,0.247,1.084,0.371c0.228,0.124,0.342,0.331,0.342,0.62c0,0.455-0.413,0.683-1.239,0.683
			c-1.033,0-1.902-0.063-2.604-0.187c-0.91-0.082-1.717-0.124-2.418-0.124c-0.662,0-1.448,0.042-2.355,0.124
			c-0.662,0.124-1.551,0.187-2.666,0.187C421.822,293.915,421.409,293.688,421.409,293.233z M425.408,260.838
			c-0.601-0.6-0.899-1.334-0.899-2.201c0-0.909,0.299-1.663,0.899-2.264c0.599-0.6,1.333-0.898,2.201-0.898
			c0.907,0,1.664,0.3,2.264,0.898c0.598,0.601,0.898,1.354,0.898,2.264c0,0.867-0.302,1.604-0.898,2.201
			c-0.6,0.6-1.355,0.897-2.264,0.897C426.741,261.737,426.007,261.438,425.408,260.838z"/>
		<path d="M436.599,293.233c0-0.289,0.104-0.484,0.311-0.589c0.207-0.103,0.579-0.237,1.117-0.403
			c0.866-0.205,1.527-0.465,1.982-0.773c0.454-0.311,0.684-0.838,0.684-1.581v-13.33c0-1.322-0.146-2.335-0.436-3.038
			c-0.29-0.702-0.909-1.178-1.859-1.426c-0.413-0.125-0.619-0.393-0.619-0.807c0-0.455,0.186-0.703,0.558-0.744
			c1.28-0.33,2.366-0.744,3.255-1.24c0.89-0.495,1.869-1.137,2.945-1.922c0.289-0.207,0.516-0.311,0.682-0.311
			c0.207,0,0.312,0.146,0.312,0.436l-0.125,1.302c-0.041,0.331-0.083,0.733-0.123,1.209c-0.042,0.476-0.063,0.961-0.063,1.457
			c0,0.413,0.041,0.661,0.124,0.743c1.487-1.404,3.038-2.448,4.649-3.131c1.613-0.683,3.389-1.022,5.332-1.022
			c1.983,0,3.647,0.827,4.992,2.479c1.342,1.653,2.014,3.699,2.014,6.139v13.206c0,0.743,0.218,1.25,0.652,1.519
			c0.434,0.27,1.104,0.549,2.014,0.838c0.496,0.166,0.857,0.32,1.086,0.465c0.228,0.146,0.341,0.361,0.341,0.65
			c0,0.372-0.413,0.559-1.24,0.559c-1.115,0-2.005-0.063-2.666-0.187c-0.826-0.082-1.591-0.124-2.293-0.124
			c-0.662,0-1.447,0.042-2.355,0.124c-0.662,0.124-1.572,0.187-2.729,0.187c-0.826,0-1.239-0.187-1.239-0.559
			c0-0.289,0.112-0.506,0.342-0.65c0.227-0.145,0.588-0.299,1.084-0.465c0.909-0.289,1.582-0.568,2.016-0.838
			c0.435-0.269,0.65-0.773,0.65-1.519v-13.021c0-1.777-0.506-3.183-1.52-4.217c-1.013-1.031-2.365-1.57-4.062-1.611
			c-2.563,0-4.856,0.828-6.881,2.479c-0.332,0.331-0.496,0.806-0.496,1.426v14.942c0,0.744,0.227,1.271,0.682,1.58
			c0.454,0.311,1.115,0.568,1.984,0.775c0.496,0.123,0.856,0.258,1.084,0.402c0.227,0.146,0.342,0.341,0.342,0.589
			c0,0.455-0.414,0.683-1.24,0.683c-1.074,0-1.964-0.063-2.666-0.187c-0.909-0.082-1.694-0.124-2.354-0.124
			c-0.662,0-1.447,0.042-2.356,0.124c-0.661,0.124-1.55,0.187-2.666,0.187C437.012,293.915,436.599,293.688,436.599,293.233z"/>
		<path d="M481.426,293.357c0-0.289,0.164-0.517,0.495-0.683c0.331-0.164,0.847-0.311,1.55-0.434
			c1.652-0.289,2.873-0.775,3.658-1.457c0.785-0.683,1.178-1.726,1.178-3.132v-28.022c0-1.446-0.3-2.48-0.897-3.102
			c-0.601-0.619-1.686-1.074-3.256-1.363c-1.363-0.248-2.046-0.66-2.046-1.24c0-0.455,0.599-0.682,1.799-0.682
			c1.155,0,2.479,0.041,3.968,0.123l3.286,0.063l2.976-0.063c1.322-0.082,2.583-0.123,3.782-0.123c1.198,0,1.798,0.227,1.798,0.682
			c0,0.58-0.682,0.992-2.046,1.24c-1.612,0.289-2.749,0.754-3.409,1.396c-0.662,0.642-0.992,1.664-0.992,3.069v28.022
			c0,1.406,0.402,2.449,1.21,3.132c0.806,0.682,2.034,1.168,3.688,1.457c0.702,0.123,1.219,0.27,1.55,0.434
			c0.33,0.166,0.496,0.394,0.496,0.683c0,0.454-0.6,0.683-1.798,0.683c-1.53,0-2.854-0.063-3.968-0.187
			c-1.324-0.083-2.418-0.124-3.286-0.124c-1.034,0-2.294,0.041-3.782,0.124c-1.24,0.124-2.625,0.187-4.154,0.187
			C482.023,294.04,481.426,293.811,481.426,293.357z"/>
		<path d="M508.271,292.706c-1.116-1.26-1.675-3.088-1.675-5.485v-14.384c0-0.373-0.135-0.621-0.402-0.744
			c-0.271-0.125-0.796-0.188-1.58-0.188h-0.373c-0.207,0-0.383-0.123-0.526-0.371c-0.146-0.248-0.218-0.537-0.218-0.869
			c0-0.082,0.052-0.195,0.156-0.34c0.102-0.146,0.194-0.259,0.277-0.342c2.231-1.57,4.071-3.225,5.52-4.96
			c0.164-0.206,0.33-0.382,0.496-0.526c0.164-0.145,0.35-0.218,0.557-0.218c0.579,0,0.849,0.228,0.808,0.683l-0.312,2.791v0.246
			c0,0.373,0.125,0.621,0.373,0.744c0.248,0.125,0.619,0.188,1.115,0.188h7.067c0.164,0,0.312,0.135,0.435,0.402
			c0.125,0.27,0.187,0.59,0.187,0.961s-0.062,0.733-0.187,1.086c-0.123,0.352-0.271,0.525-0.435,0.525h-6.139
			c-1.115,0-1.809,0.084-2.076,0.248c-0.27,0.166-0.402,0.662-0.402,1.488v12.214c0,1.694,0.351,3.007,1.054,3.938
			c0.703,0.93,1.715,1.395,3.039,1.395c1.155,0,2.076-0.082,2.758-0.248c0.683-0.165,1.292-0.454,1.83-0.868l0.248-0.124
			c0.288,0,0.434,0.29,0.434,0.868c0,0.248-0.372,0.692-1.116,1.333c-0.743,0.643-1.664,1.209-2.759,1.705
			c-1.096,0.496-2.223,0.744-3.379,0.744C510.979,294.597,509.387,293.965,508.271,292.706z"/>
		<path d="M525.816,293.76c-0.785-0.559-1.438-1.262-1.953-2.108c-0.519-0.847-0.775-1.644-0.775-2.387
			c0-1.281,0.342-2.294,1.023-3.038c0.681-0.744,1.808-1.445,3.379-2.107l6.324-2.604c0.784-0.33,1.26-0.62,1.426-0.868
			c0.165-0.248,0.269-0.783,0.311-1.611l0.123-3.969c0.041-1.115-0.269-2.057-0.93-2.82c-0.661-0.765-1.57-1.146-2.729-1.146
			c-0.62,0-1.239,0.104-1.859,0.311c-0.619,0.207-1.138,0.475-1.551,0.807c-0.412,0.289-0.619,0.889-0.619,1.798l0.063,1.116
			c0,0.33-0.527,0.773-1.582,1.332c-1.053,0.559-1.891,0.838-2.51,0.838c-0.208,0-0.373-0.053-0.496-0.155
			c-0.125-0.103-0.187-0.237-0.187-0.403c0-0.66,0.217-1.373,0.65-2.139c0.435-0.766,1.043-1.479,1.828-2.139
			c1.405-1.281,2.986-2.336,4.744-3.162c1.756-0.826,3.254-1.24,4.494-1.24c1.487,0,2.718,0.527,3.688,1.581
			c0.972,1.054,1.437,2.366,1.396,3.937l-0.311,14.881c-0.042,0.867,0.145,1.572,0.559,2.107c0.413,0.538,0.971,0.807,1.674,0.807
			c1.033,0,1.799-0.228,2.295-0.683c0.205-0.206,0.371-0.31,0.496-0.31c0.205,0,0.371,0.062,0.496,0.186
			c0.123,0.124,0.186,0.29,0.186,0.496c0,0.166-0.063,0.383-0.186,0.65c-0.125,0.27-0.291,0.507-0.496,0.714
			c-0.662,0.661-1.375,1.188-2.14,1.581c-0.766,0.392-1.479,0.589-2.141,0.589c-1.899,0-3.409-1.074-4.524-3.226h-0.187
			c-1.364,1.117-2.666,1.934-3.906,2.449c-1.239,0.516-2.521,0.775-3.844,0.775C527.346,294.597,526.602,294.318,525.816,293.76z
			 M534.621,290.133c0.248-0.248,0.434-0.559,0.557-0.932c0.125-0.371,0.207-0.908,0.248-1.611l0.125-3.037v-0.372
			c0-0.33-0.042-0.567-0.125-0.714c-0.082-0.145-0.227-0.217-0.434-0.217c-0.248,0-0.662,0.104-1.24,0.311
			c-2.066,0.744-3.555,1.529-4.463,2.355c-0.91,0.828-1.365,1.633-1.365,2.418c0,1.033,0.3,1.84,0.899,2.418
			c0.599,0.58,1.312,0.867,2.14,0.867C532.408,291.622,533.629,291.125,534.621,290.133z"/>
		<path d="M546.709,293.357c0-0.289,0.113-0.506,0.342-0.651c0.228-0.144,0.588-0.299,1.084-0.465
			c0.909-0.287,1.582-0.566,2.017-0.837c0.434-0.269,0.649-0.774,0.649-1.519v-31.248c0-2.604-0.951-4.112-2.852-4.526
			c-0.166-0.04-0.289-0.134-0.372-0.278s-0.124-0.319-0.124-0.526c0-0.413,0.145-0.661,0.434-0.744
			c1.612-0.372,3.451-0.992,5.52-1.86l1.486-0.558c0.166-0.082,0.289-0.124,0.373-0.124c0.082,0,0.154,0.053,0.217,0.154
			c0.063,0.104,0.094,0.197,0.094,0.279c0,0.248-0.073,1.033-0.217,2.355c-0.146,1.322-0.219,3.348-0.219,6.076v31
			c0,0.744,0.219,1.25,0.652,1.519c0.434,0.271,1.104,0.55,2.014,0.837c0.496,0.166,0.857,0.321,1.086,0.465
			c0.228,0.146,0.342,0.362,0.342,0.651c0,0.372-0.413,0.558-1.24,0.558c-1.075,0-1.964-0.062-2.666-0.186
			c-0.909-0.082-1.695-0.124-2.356-0.124s-1.447,0.042-2.354,0.124c-0.662,0.124-1.551,0.186-2.666,0.186
			C547.122,293.915,546.709,293.729,546.709,293.357z"/>
		<path d="M562.116,310.779c-0.601-0.413-0.899-1.054-0.899-1.922c0-0.785,0.188-1.446,0.56-1.983s0.868-0.807,1.486-0.807
			c0.331,0,0.775,0.063,1.333,0.188c0.56,0.123,0.94,0.186,1.147,0.186c0.496,0,0.889-0.229,1.178-0.682
			c0.785-1.199,1.653-2.78,2.604-4.743c0.949-1.964,1.839-4.062,2.666-6.293c0.124-0.372,0.186-0.849,0.186-1.427
			c0-0.744-0.083-1.342-0.248-1.799l-7.19-18.166c-0.704-1.693-1.635-2.705-2.79-3.037c-0.496-0.164-0.858-0.319-1.085-0.465
			c-0.229-0.145-0.343-0.361-0.343-0.65c0-0.372,0.413-0.559,1.24-0.559c1.074,0,1.881,0.063,2.418,0.187
			c0.744,0.083,1.446,0.124,2.108,0.124c0.702,0,1.426-0.041,2.17-0.124c0.62-0.124,1.467-0.187,2.542-0.187
			c0.289,0,0.566,0.063,0.837,0.187c0.269,0.124,0.403,0.289,0.403,0.495c0,0.289-0.197,0.559-0.59,0.807
			c-0.394,0.248-0.797,0.434-1.209,0.559c-0.455,0.123-0.774,0.342-0.962,0.65c-0.186,0.311-0.277,0.756-0.277,1.333
			c0,0.372,0.164,0.951,0.496,1.736l5.021,12.399c0.083,0.248,0.206,0.371,0.372,0.371c0.124,0,0.227-0.123,0.311-0.371
			l4.277-11.347c0.124-0.289,0.237-0.671,0.341-1.146c0.104-0.476,0.155-0.857,0.155-1.147c0-0.702-0.104-1.229-0.31-1.581
			c-0.208-0.352-0.519-0.609-0.932-0.775c-1.199-0.535-1.798-1.031-1.798-1.486c0-0.207,0.134-0.372,0.403-0.496
			c0.269-0.124,0.547-0.188,0.837-0.188c0.206,0,0.682,0.043,1.426,0.125c1.488,0.123,2.48,0.187,2.978,0.187
			c0.577,0,1.362-0.063,2.354-0.187c0.496-0.082,0.93-0.125,1.302-0.125c0.827,0,1.24,0.188,1.24,0.56
			c0,0.288-0.114,0.507-0.341,0.649c-0.229,0.146-0.589,0.301-1.085,0.467c-0.62,0.207-1.281,0.703-1.984,1.486
			c-0.703,0.786-1.261,1.674-1.674,2.666l-8.432,20.088l-0.932,2.295c-2.563,6.199-4.236,10.209-5.021,12.027
			c-0.372,0.826-0.91,1.457-1.612,1.891c-0.703,0.436-1.509,0.651-2.418,0.651S562.715,311.192,562.116,310.779z"/>
	</g>
</g>
<g id="NAME">
	<rect x="203.981" y="89.544" fill="#231F20" width="25.589" height="129.126"/>
	<path fill="#231F20" d="M256.405,219.559c-0.354,0-0.694-0.023-1.046-0.027c-7.867-0.221-23.748,0-23.904,0l-0.024-1.718
		c0.157,0,16.062-0.228,23.971,0c7.861,0.14,16.232-2.071,25.021-6.794c8.325-4.477,17.828-14.396,22.925-21.87
		c2.097-3.094,19.944-31.269-0.333-69.289c-16.238-30.433-55.476-28.728-55.856-28.66H199.09v-1.726h48.024
		c0.375-0.005,40.691-1.817,57.426,29.577c20.74,38.919,2.387,67.896,0.231,71.056c-5.054,7.441-14.561,17.611-23.521,22.416
		C272.559,217.189,264.206,219.559,256.405,219.559"/>
	<rect x="199.089" y="217.814" fill="#231F20" width="34.225" height="1.718"/>
	<path fill="#231F20" d="M271.396,93.83c0,0,12.89,8.154,12.89,20.016v45.718h29.235C313.521,159.564,316.107,108.539,271.396,93.83
		"/>
	<path fill="#231F20" d="M271.396,215.437c0,0,12.89-8.165,12.89-20.026v-45.707h29.235
		C313.521,149.704,316.107,200.736,271.396,215.437"/>
	<polygon fill="#231F20" points="444.181,155.476 432.002,167.674 419.814,155.476 432.002,143.308 	"/>
	<rect x="468.746" y="89.812" fill="#231F20" width="24.581" height="129.407"/>
	<path fill="#231F20" d="M491.888,170.637V168.9h31.354l16.217-3.423c0.994-0.479,28.363-13.011,19.76-44.959
		c-8.614-31.966-43.021-29.919-43.39-29.848h-52.113v-1.717h52.039c0.297,0.004,36.119-2.259,45.132,31.119
		c8.996,33.409-20.611,46.895-20.917,47.031l-16.551,3.504L491.888,170.637z"/>
	<polygon fill="#231F20" points="540.995,165.62 567.53,219.219 540.995,219.219 515.472,169.756 523.24,169.756 	"/>
	<rect x="535.02" y="218.361" fill="#231F20" width="34.809" height="1.736"/>
	<rect x="463.631" y="218.361" fill="#231F20" width="34.809" height="1.736"/>
	<path fill="#231F20" d="M517.189,89.812c0,0,13.519,3.165,15.257,18.122c1.717,14.957,0,42.554,0,42.554s0.857,19.27-14.101,19.27
		c0,0,11.733,0.839,22.648-4.139c7.729-3.515,14.633-10.327,18.542-20.752c0,0,9.931-20.915-11.456-44.455
		C548.081,100.411,533.305,89.812,517.189,89.812"/>
	<rect x="589.777" y="90.101" fill="#231F20" width="25.601" height="128.839"/>
	<polygon fill="#231F20" points="659.089,220.659 585.186,220.659 585.186,217.224 655.635,217.224 655.635,208.016 
		659.089,208.016 	"/>
	<polygon fill="#231F20" points="659.089,101.023 655.635,101.023 655.635,91.829 585.186,91.829 585.186,88.374 659.089,88.374 	
		"/>
	<path fill="#231F20" d="M643.815,156.238c-11.097-0.196-29.373-0.413-31.122-0.064l-0.234-1.291l-1.205-1.799
		c0.542-0.369,1.34-0.863,32.639-0.282L643.815,156.238z"/>
	<rect x="642.117" y="143.307" fill="#231F20" width="3.454" height="22.138"/>
	<polygon fill="#231F20" points="353.805,130.101 369.341,89.833 416.507,218.092 388.321,218.092 	"/>
	<polygon fill="#231F20" points="320.671,218.407 319.072,217.784 368.535,89.52 370.146,90.144 	"/>
	<rect x="313.548" y="217.236" fill="#231F20" width="12.94" height="1.737"/>
	<rect x="381.702" y="217.236" fill="#231F20" width="37.103" height="1.737"/>
	<path fill="#231F20" d="M372.646,171.502c-9.301-0.012-33.575-0.045-34.393-0.004l-0.046-0.851l-0.847-0.274
		c0.205-0.662,0.227-0.662,35.285-0.588V171.502L372.646,171.502z"/>
</g>
</svg>
