<?xml version="1.0" encoding="utf-8"?>
<!-- Generator: Adobe Illustrator 16.0.0, SVG Export Plug-In . SVG Version: 6.00 Build 0)  -->
<!DOCTYPE svg PUBLIC "-//W3C//DTD SVG 1.1//EN" "http://www.w3.org/Graphics/SVG/1.1/DTD/svg11.dtd">
<svg version="1.1" id="Layer_1" xmlns="http://www.w3.org/2000/svg" xmlns:xlink="http://www.w3.org/1999/xlink" x="0px" y="0px"
	 width="490.943px" height="333.47px" viewBox="0 0 490.943 333.47" enable-background="new 0 0 490.943 333.47"
	 xml:space="preserve">
<g>
	<path fill-rule="evenodd" clip-rule="evenodd" fill="#212529" d="M159.252,145.625c0.001-7.83-0.006-15.659,0.004-23.489
		c0.007-4.968-0.372-4.447,4.631-4.476c4.28-0.025,8.561,0.008,12.841-0.01c3.101-0.013,3.144-0.047,2.108-2.864
		c-2.198-5.975-4.345-11.972-6.715-17.878c-1.235-3.079-0.542-2.944,1.504-4.039c12.236-6.543,25.207-11.031,38.741-14.001
		c15.633-3.432,31.469-4.107,47.339-2.971c20.416,1.463,39.852,6.831,58.111,16.197c4.302,2.206,4.071,1.702,2.453,6.037
		c-1.97,5.28-3.98,10.546-5.967,15.821c-0.294,0.781-0.599,1.562-0.815,2.366c-0.195,0.723,0.101,1.222,0.905,1.269
		c0.729,0.042,1.459,0.057,2.188,0.058c4.594,0.007,9.188-0.008,13.78,0.015c3.062,0.016,3.107,0.044,3.114,3.195
		c0.021,10.544,0.009,21.088,0.009,31.632c0,5.846-0.006,11.692,0.001,17.538c0.004,3.178,0.202,3.785-3.352,2.674
		c-6.819-2.131-14.612,1.437-17.616,7.88c-2.357,5.06-1.657,9.994,1.399,14.536c0.775,1.153,1.144,2.071,0.8,3.417
		c-0.417,1.626-0.324,3.326-0.191,4.988c0.203,2.562,1.278,4.653,3.764,5.678c1.146,0.472,1.86,1.137,2.357,2.285
		c1.804,4.166,4.88,6.399,9.581,5.969c0.312-0.028,0.625-0.048,0.938-0.049c2.132-0.009,2.269,0.058,2.297,2.303
		c0.054,4.384,0.02,8.769,0.021,13.153c0.001,2.088-0.084,4.18,0.025,6.262c0.095,1.817-0.482,2.855-2.336,3.446
		c-3.118,0.996-5.797,2.79-8.099,5.169c-2.244,2.321-3.789,4.991-4.34,8.163c-0.329,1.892-0.854,3.544-2.347,4.931
		c-1.584,1.472-2.186,3.604-2.398,5.669c-0.21,2.055-1.28,3.088-2.946,4.023c-11.484,6.449-23.357,12.069-35.595,16.932
		c-8.638,3.433-17.411,6.466-26.293,9.202c-1.768,0.545-3.379,0.604-5.177,0.063c-21.366-6.434-41.881-14.873-61.39-25.738
		c-2.02-1.125-3.481-2.311-3.807-4.838c-0.321-2.489-1.349-4.823-3.369-6.548c-0.664-0.566-0.96-1.314-1.073-2.188
		c-0.959-7.424-5.51-11.895-12.114-14.661c-0.289-0.121-0.574-0.273-0.876-0.335c-1.813-0.369-2.154-1.577-2.131-3.243
		c0.074-5.532,0.03-11.065,0.035-16.599c0.001-1.252,0.017-2.505,0.032-3.757c0.013-1.026,0.525-1.533,1.563-1.472
		c0.729,0.043,1.458,0.086,2.187,0.142c4.157,0.319,7.018-1.655,8.835-5.207c0.736-1.439,1.483-2.541,3.075-3.271
		c2.53-1.16,3.276-3.623,3.524-6.231c0.19-1.995-0.688-4.006-0.363-5.883c0.323-1.863,2.032-3.281,2.678-5.202
		c1.827-5.431,1.132-10.391-2.822-14.555c-4.097-4.314-9.184-6.039-15.107-4.572c-3.598,0.891-3.599,0.938-3.604-2.821
		C159.245,161.701,159.25,153.663,159.252,145.625z"/>
	<path fill-rule="evenodd" clip-rule="evenodd" fill="#212529" d="M73.182,147.349c0.309,3.794-0.812,6.584-3.184,8.893
		c-0.974,0.948-2.319,1.837-1.592,3.377c0.678,1.437,2.275,1.24,3.616,1.262c6.472,0.104,11.24-3.2,15.636-7.881
		c3.24,3.727,4.924,7.776,2.775,12.752c5.739,0.086,9.079-3.595,11.518-12.576c1.301,1.106,2.47,2.274,3.808,3.195
		c2.023,1.392,2.907,1.249,4.658-0.437c2.616-2.52,4.265-5.563,4.661-9.769c1.01,1.225,1.642,1.991,2.272,2.758
		c1.739,2.117,3.664,4.014,6.214,5.143c2.189,0.969,2.557,0.875,3.781-1.142c1.873-3.087,3.109-6.366,2.902-10.067
		c-0.075-1.328-0.142-2.691,1.188-3.816c1.39,1.029,1.887,2.543,2.452,3.938c1.937,4.781,2.797,9.818,3.332,14.919
		c0.51,4.872,0.525,9.804,1.911,14.565c0.998,3.431,2.281,6.713,4.445,9.601c2.148,2.866,4.927,4.779,8.429,5.586
		c2.151,0.496,3.017,0.091,4.115-1.838c0.629-1.104,0.875-2.332,1.175-3.55c0.872-3.528,3.257-5.572,6.719-6.182
		c7.394-1.302,15.488,5.837,15.299,13.344c-0.043,1.714-0.438,3.274-1.721,4.691c-2.604-2.045-4.427-5.471-8.658-5.028
		c0.333,1.269,1.426,1.573,2.15,2.19c2.492,2.122,4.764,4.4,5.788,7.622c1.206,3.793-0.32,7.258-4.163,9.128
		c-0.818-2.004-0.866-4.516-3.126-5.71c-0.786,0.767-0.141,1.403-0.021,2.048c0.267,1.434,0.695,2.854,0.792,4.298
		c0.271,4.051-2.512,6.657-6.596,6.309c-1.705-0.146-3.311-0.709-4.657-1.7c-2.311-1.701-4.871-2.81-7.577-3.629
		c-2.771-0.839-4.394-2.596-4.905-5.485c-0.423-2.395-1.951-4.351-2.737-6.551c-1.227-0.118-1.435,0.911-1.987,1.441
		c-2.878,2.766-5.458,2.658-7.962-0.459c-1.452-1.808-2.445-3.888-3.196-6.067c-0.475-1.379-0.935-2.281-2.806-2.062
		c-1.545,0.182-3.105-0.629-4.815-0.009c-1.063,0.385-1.845-0.744-2.286-1.744c-0.768-1.741-1.068-3.592-1.173-5.479
		c-0.126-2.29-0.233-4.582-0.389-6.87c-0.072-1.057-0.459-1.543-1.766-1.555c-3.89-0.034-5.619-1.737-6.022-5.627
		c-0.118-1.136,0.022-2.297-0.062-3.438c-0.141-1.919-1.04-2.323-2.681-1.237c-0.431,0.285-0.825,0.641-1.188,1.012
		c-11.193,11.439-25.046,15.688-40.692,14.954c-3.301-0.155-6.449,0.255-9.508,1.437c-5.823,2.25-8.473,6.326-7.662,11.738
		c0.994,6.628,5.004,10.634,11.176,11.163c4.471,0.383,8.769-0.52,12.872-2.126c7.963-3.119,16.042-5.938,23.818-9.545
		c4.031-1.871,8.402-1.365,12.624-0.551c5.716,1.102,10.469,4.026,14.438,8.257c3.215,3.426,6.383,6.897,9.677,10.245
		c1.911,1.942,2.34,4.063,1.55,6.587c-0.868,2.773-0.139,4.33,2.5,5.403c0.668,0.271,1.403,0.382,2.106,0.567
		c0.701,0.186,1.459,0.258,2.09,0.579c1.585,0.808,3.334,1.656,3.383,3.73c0.049,2.055-1.528,3.096-3.161,3.895
		c-2.905,1.422-5.813,2.847-8.781,4.127c-2.396,1.035-3.611,2.853-3.727,5.32c-0.348,7.407,2.104,13.943,6.576,19.745
		c1.188,1.541,2.832,2.636,4.922,1.795c1.889-0.759,2.966-2.199,3.005-4.344c0.017-0.933,0.216-1.864,0.367-2.791
		c0.733-4.504,3.291-7.119,7.878-7.5c5.302-0.44,10.114,1.129,14.313,4.416c1.173,0.919,2.063,2.079,2.04,3.703
		c-0.014,0.986-0.243,1.534-1.479,1.316c-1.533-0.27-3.11-0.309-4.671-0.385c-0.938-0.046-1.89,0.014-2.77,0.394
		c-0.65,0.28-1.448,0.486-1.359,1.458c0.076,0.831,0.609,1.271,1.363,1.526c1.224,0.415,2.453,0.417,3.706,0.148
		c4.667-0.999,7.887,1.277,10.305,4.867c2.111,3.135,2.047,6.733,1.305,10.284c-0.368,1.761-1.003,2.018-2.713,1.396
		c-2.775-1.009-5.299-2.483-7.445-4.52c-1.171-1.111-2.484-1.89-4.019-2.317c-1.262-0.353-2.525-0.512-3.34,0.827
		c-0.825,1.354-0.107,2.368,0.859,3.295c2.137,2.048,4.644,3.038,7.64,3.022c5.332-0.029,10.241,4.785,10.412,10.063
		c0.147,4.596-2.438,7.074-7.003,6.584c-2.301-0.247-4.537-0.812-6.221-2.595c-0.984-1.041-1.903-1.212-3.285-0.468
		c-2.214,1.192-4.68,0.854-7.054,0.396c-2.158-0.418-4.242-1.133-6.2-2.13c-6.436-3.279-12.625-6.902-17.527-12.376
		c-1.989-2.222-3.023-2.283-5.699-0.901c-0.733,0.379-1.521,0.706-2.323,0.887c-2.6,0.587-4.534-0.564-5.25-3.147
		c-0.536-1.934-0.551-3.911-0.278-5.904c0.298-2.176,0.47-4.376,0.141-6.556c-0.287-1.902-0.852-2.159-2.451-1.153
		c-1.163,0.732-2.357,1.348-3.693,1.646c-2.55,0.568-4.13-0.42-4.387-3.041c-0.353-3.594-0.282-7.135,3.119-9.574
		c1.098-0.788,2.071-1.747,3.124-2.599c2.705-2.187,5.078-4.662,6.692-7.777c2.335-4.504,2.289-9.023-1.014-12.906
		c-5.697-6.697-12.662-11.158-21.932-10.684c-3.506,0.179-6.78,1.162-9.766,3.02c-3.125,1.943-3.554,3.287-2.224,6.798
		c0.936,2.469,2.403,4.626,4.052,6.66c1.536,1.896,2.69,3.983,3.223,6.368c0.461,2.064,0.595,4.153-0.323,6.142
		c-0.84,1.818-1.71,2.047-3.33,0.752c-0.855-0.685-1.787-1.091-2.787-1.342c-2.03-0.509-2.666,0.058-2.568,2.164
		c0.029,0.625,0.126,1.247,0.183,1.87c0.229,2.507,0.168,5.006-0.23,7.494c-0.749,4.672-2.831,5.62-6.445,2.712
		c-2.234-1.798-4.692-1.988-7.08-1.154c-4.103,1.434-7.571,0.229-10.986-1.83c-1.793-1.08-3.506-2.285-5-3.753
		c-1.406-1.381-3.139-2.078-4.984-2.456c-2.621-0.536-4.207,0.761-4.446,3.45c-0.179,2.008,0.305,3.949,0.632,5.9
		c0.695,4.149,1.987,8.104,4.114,11.756c4.4,7.554,11.611,10.835,20.186,9.158c2.356-0.46,4.634-1.175,6.87-2.094
		c7.767-3.192,15.661-0.826,20.454,6.033c0.975,1.396,1.659,2.897,1.57,4.651c-0.051,0.997-0.462,1.548-1.587,1.358
		c-1.041-0.176-2-0.373-2.788-1.213c-1.296-1.379-2.882-2.419-4.558-3.276c-4.306-2.202-8.612-2.331-12.815,0.266
		c-3.527,2.179-7.202,3.793-11.716,3.253c-0.056,1.924,0.992,2.72,2.422,3.211c1.934,0.664,3.921,0.563,5.885,0.226
		c1.478-0.253,2.899-0.242,4.32,0.25c1.138,0.394,2.019,1.096,2.567,2.163c0.824,1.604,0.539,2.37-1.213,3.089
		c-3.006,1.232-6.146,1.991-9.341,2.547c-3.605,0.628-7.229,1.053-10.893,1.011c-3.438-0.04-5.493-1.542-6.493-4.774
		c-0.401-1.298-0.568-2.636-0.624-4.007c-0.113-2.741-0.722-5.393-2.109-7.783c-1.536-2.646-3.544-3.273-6.355-2.124
		c-0.385,0.157-0.737,0.394-1.121,0.556c-2.381,1.003-3.965,0.57-5.372-1.57c-1.228-1.869-1.681-4.014-2.079-6.185
		c-0.718-3.925-0.456-7.916-0.9-11.856c-0.093-0.824-0.187-1.648-0.284-2.509c-1.213,0.209-1.377,1.275-1.881,1.997
		c-0.779,1.116-1.525,2.259-2.615,3.096c-1.729,1.328-3.306,1.15-4.602-0.588c-0.553-0.741-1.051-1.598-1.301-2.479
		c-1.226-4.31-2.672-8.582-3.02-13.085c-0.305-3.944,0.07-7.757,3.117-10.748c0.613-0.603,0.629-1.007,0.202-1.839
		c-1.39-2.707-0.888-3.99,1.707-5.547c1.788-1.073,3.627-2.107,5.249-3.403c4.092-3.271,8.553-3.482,13.296-1.932
		c1.899,0.621,3.59,1.66,5.271,2.722c3.281,2.072,6.734,3.768,10.545,4.659c1.239,0.289,2.477,0.432,3.716,0.131
		c2.029-0.493,3.253-2.126,3.352-4.379c0.085-1.931-0.8-3.201-3.026-3.785c-3.292-0.865-6.624-0.525-9.936,0.045
		c-8.308,1.431-14.65-2.219-17.463-10.129c-0.591-1.663-0.963-3.412-1.328-5.145c-0.624-2.96-1.286-5.922-1.69-8.916
		c-0.244-1.803-1.087-3.026-2.368-4.205c-5.825-5.365-10.534-11.571-13.712-18.86c-4.281-9.818-4.26-19.422,1.486-28.75
		c1.696-2.753,3.22-5.613,4.821-8.424c5.891-10.337,11.786-20.672,17.671-31.012c2.129-3.74,3.709-7.695,4.674-11.9
		c0.497-2.167,0.61-4.353,0.417-6.538c-0.292-3.292-1.733-5.989-4.557-7.831c-2.52-1.643-4.661-1.014-5.689,1.835
		c-0.95,2.632-0.829,5.351,0.185,7.963c1.02,2.627,2.216,5.171,3.701,7.583c2.23,3.621,0.718,6.391-3.556,6.512
		c-1.238,0.035-2.489-0.222-3.726-0.399c-3.514-0.504-4.698,0.375-4.811,3.861c-0.136,4.178-1.845,7.685-4.548,10.705
		c-2.616,2.924-6.196,3.461-9.702,1.728c-2.285-1.13-2.83-3.406-0.957-5.036c5.428-4.722,6.504-10.935,6.205-17.596
		c-0.188-4.181-0.465-8.338,0.479-12.467c2.129-9.321,7.72-15.257,17.058-17.623c1.389-0.352,2.658-0.299,3.979,0.119
		c5.726,1.813,9.771,5.531,12.108,11.006c2.614,6.121,3.303,12.446,1.589,18.975c-2.218,8.449-5.97,16.238-10.124,23.858
		c-4.652,8.534-10.022,16.615-15.483,24.647c-3.605,5.302-5.781,11.126-4.896,17.69c0.755,5.599,4.236,9.164,9.164,11.434
		c2.324,1.07,4.502,0.345,6.438-1.145c1.265-0.974,2.26-2.245,2.793-3.719c1.942-5.375,5.91-9.089,10.345-12.244
		c3.892-2.769,7.52-5.611,9.417-10.15c0.229-0.549,0.621-0.791,1.21-0.732c0.208,0.021,0.417,0.015,0.625,0.031
		C65.819,150.63,69.717,150.378,73.182,147.349z"/>
	<path fill-rule="evenodd" clip-rule="evenodd" fill="#212529" d="M420.024,147.753c3.261,2.617,7.155,2.907,11.16,2.536
		c1.163-0.107,1.531,0.401,1.994,1.393c1.53,3.274,3.829,5.958,6.912,7.9c3.298,2.077,6.158,4.656,8.758,7.534
		c1.332,1.474,2.395,3.096,3.176,4.975c3.148,7.568,8.605,8.658,14.623,3.042c4.227-3.946,5.26-8.869,4.29-14.327
		c-0.774-4.366-2.479-8.38-5.025-12.041c-7.997-11.499-15.498-23.291-21.163-36.156c-1.812-4.113-3.361-8.315-4.382-12.704
		c-1.496-6.442-0.771-12.67,1.93-18.648c2.404-5.321,6.432-8.905,12.057-10.639c1.225-0.378,2.391-0.41,3.673-0.112
		c9.656,2.246,16.063,9.258,17.539,19.341c0.455,3.106,0.623,6.199,0.212,9.354c-0.619,4.748,0.046,9.372,2.1,13.744
		c0.891,1.898,1.987,3.58,3.683,4.962c2.423,1.975,1.934,4.245-0.96,5.506c-3.52,1.535-6.825,0.941-9.385-1.953
		c-2.611-2.951-4.327-6.341-4.439-10.419c-0.101-3.63-1.362-4.619-4.952-4.047c-1.547,0.246-3.082,0.563-4.662,0.289
		c-3.308-0.575-4.579-3.11-2.807-5.98c1.545-2.503,2.801-5.124,3.907-7.831c1.021-2.5,1.205-5.079,0.444-7.664
		c-0.984-3.341-3.354-4.111-6.198-2.102c-2.979,2.104-4.173,5.123-4.329,8.623c-0.186,4.159,1.022,8.046,2.497,11.863
		c1.096,2.833,2.614,5.455,4.114,8.084c7.033,12.329,13.941,24.732,21.146,36.959c5.632,9.559,5.671,19.184,1.258,29.062
		c-3.109,6.958-7.575,12.982-13.185,18.106c-1.742,1.591-2.617,3.344-2.95,5.614c-0.453,3.094-1.099,6.164-1.755,9.224
		c-0.326,1.523-0.751,3.046-1.317,4.496c-2.842,7.265-8.971,10.781-16.684,9.512c-2.489-0.409-4.97-0.609-7.479-0.561
		c-1.044,0.02-2.079,0.097-3.083,0.457c-2.107,0.757-2.853,1.67-2.849,3.587c0.004,2.339,1.096,3.933,3.118,4.517
		c1.348,0.389,2.68,0.2,4.019-0.117c4.018-0.95,7.606-2.819,11.051-5.034c3.034-1.95,6.283-3.279,9.979-3.22
		c2.685,0.044,5.142,0.712,7.292,2.395c1.895,1.481,3.938,2.741,6.032,3.923c2.633,1.485,2.999,2.89,1.546,5.605
		c-0.142,0.266-0.287,0.53-0.486,0.896c4.113,3.74,4.433,8.575,3.592,13.578c-0.569,3.385-1.567,6.697-2.394,10.038
		c-0.124,0.503-0.338,0.987-0.541,1.468c-1.824,4.314-4.452,4.646-7.381,0.96c-0.898-1.13-1.364-2.58-2.746-3.629
		c-0.561,1.249-0.36,2.493-0.45,3.675c-0.314,4.159-0.273,8.349-1.15,12.458c-0.308,1.439-0.734,2.836-1.459,4.115
		c-1.481,2.616-3.208,3.156-6.002,1.93c-0.19-0.083-0.36-0.215-0.551-0.297c-3.069-1.329-5.229-0.642-6.795,2.309
		c-1.395,2.627-1.879,5.517-2.055,8.452c-0.076,1.264-0.241,2.491-0.713,3.668c-1.083,2.701-3.013,4.178-5.988,4.161
		c-6.838-0.039-13.522-1.019-19.976-3.331c-2.594-0.93-2.888-2.714-0.784-4.558c1.434-1.257,3.19-1.56,4.997-1.295
		c1.559,0.229,3.108,0.387,4.677,0.312c1.267-0.061,2.498-0.326,3.521-1.129c0.579-0.454,1.14-1.051,0.947-1.85
		c-0.263-1.083-1.191-0.546-1.825-0.539c-3.146,0.032-6.059-0.918-8.554-2.656c-6.372-4.437-12.837-2.806-18.024,1.756
		c-1.344,1.182-2.656,1.947-4.538,1.707c-0.926-2.147-0.178-4.056,1.024-5.824c4.754-7.001,12.851-9.414,20.692-6.124
		c3.711,1.557,7.516,2.429,11.555,2.379c5.492-0.068,9.917-2.31,13.295-6.534c4.618-5.773,6.325-12.642,6.812-19.825
		c0.24-3.553-1.8-4.958-5.203-4.045c-1.638,0.439-3.075,1.202-4.344,2.372c-2.314,2.135-4.885,3.933-7.803,5.154
		c-2.359,0.988-4.725,1.356-7.304,0.497c-2.992-0.997-5.809-0.813-8.481,1.448c-2.755,2.33-4.599,1.475-5.591-2.128
		c-0.792-2.876-0.458-5.808-0.443-8.723c0.004-0.729,0.152-1.456,0.153-2.185c0.002-1.569-0.56-2.073-2.14-1.754
		c-1.215,0.246-2.349,0.675-3.352,1.557c-1.308,1.148-2.1,0.938-2.96-0.511c-0.835-1.405-0.947-2.978-0.831-4.552
		c0.231-3.122,1.494-5.842,3.451-8.248c1.723-2.118,3.255-4.359,4.2-6.933c1.223-3.327,0.805-4.771-2.222-6.534
		c-6.566-3.83-13.409-4.354-20.369-1.135c-3.811,1.763-7.299,4.052-10.195,7.152c-4.39,4.697-4.968,9.975-1.655,15.474
		c1.58,2.624,3.672,4.797,6.04,6.721c1.132,0.921,2.178,1.954,3.357,2.808c3.162,2.29,3.305,5.641,3.065,8.997
		c-0.229,3.201-2.149,4.278-5.275,3.263c-1.196-0.39-2.277-1.007-3.292-1.77c-0.906-0.681-1.57-0.319-1.866,0.703
		c-0.474,1.633-0.425,3.308-0.257,4.976c0.21,2.08,0.434,4.16,0.272,6.251c-0.375,4.859-3.529,6.625-7.793,4.385
		c-2.917-1.532-3.86-1.324-6.158,1.099c-5.85,6.168-12.895,10.549-20.821,13.476c-3.369,1.243-6.92,1.835-10.334,0.017
		c-1.336-0.711-1.966,0.244-2.676,0.886c-2.25,2.031-4.944,2.607-7.833,2.505c-2.728-0.098-4.47-1.627-5.069-4.264
		c-1.351-5.936,3.87-12.467,10.034-12.403c2.998,0.031,5.518-0.911,7.684-2.921c0.964-0.895,1.731-1.861,1.027-3.279
		c-0.588-1.183-1.65-1.461-3.563-0.897c-1.529,0.451-2.816,1.285-3.984,2.387c-2.154,2.032-4.726,3.41-7.478,4.473
		c-1.189,0.459-2.076,0.227-2.43-1.06c-1.289-4.691-0.73-11.115,5.1-14.498c1.858-1.078,3.776-1.741,5.97-1.15
		c1.325,0.356,2.673,0.437,4.014-0.022c0.858-0.293,1.572-0.782,1.553-1.727c-0.018-0.867-0.866-1.144-1.549-1.334
		c-2.262-0.632-4.556-0.371-6.843-0.109c-1.929,0.222-2.43-0.351-1.865-2.169c0.421-1.356,1.352-2.349,2.471-3.151
		c3.854-2.768,8.187-4.181,12.913-4.048c5.271,0.148,8.192,2.996,8.851,8.255c0.129,1.036,0.252,2.077,0.466,3.097
		c0.735,3.504,4.133,4.679,6.904,2.394c1.732-1.429,2.85-3.334,3.824-5.297c1.773-3.572,3.001-7.34,3.596-11.292
		c0.25-1.659,0.252-3.318-0.152-4.976c-0.476-1.95-1.5-3.382-3.376-4.225c-2.854-1.283-5.685-2.623-8.507-3.977
		c-2.684-1.287-4.027-2.889-3.599-4.548c0.595-2.295,2.56-3.152,4.581-3.807c0.885-0.285,1.866-0.288,2.732-0.61
		c2.85-1.058,3.646-2.696,2.678-5.559c-0.82-2.425-0.362-4.458,1.419-6.307c3.332-3.459,6.584-6.994,9.892-10.477
		c6.404-6.743,14.257-9.55,23.488-8.625c1.373,0.138,2.638,0.491,3.887,1.086c7.828,3.734,16.025,6.557,24.118,9.633
		c3.729,1.417,7.615,2.181,11.655,1.945c9.333-0.543,12.815-8.526,11.495-15.641c-0.525-2.831-2.51-4.781-4.984-6.128
		c-3.553-1.932-7.34-2.887-11.432-2.604c-9.778,0.677-19.138-0.965-27.976-5.284c-4.628-2.262-8.89-5.056-12.427-8.856
		c-0.143-0.152-0.29-0.302-0.445-0.44c-0.987-0.88-1.861-2.401-3.354-1.809c-1.44,0.573-0.772,2.186-0.761,3.356
		c0.015,1.391-0.262,2.711-0.72,3.983c-0.827,2.301-2.427,3.514-4.983,3.483c-2.194-0.026-2.264,0.065-2.381,2.177
		c-0.144,2.604,0.014,5.227-0.473,7.808c-0.212,1.124-0.406,2.272-0.803,3.338c-0.798,2.147-1.45,2.467-3.793,1.936
		c-1.768-0.4-3.376,0.714-5.159,0.412c-0.575-0.098-0.704,0.93-0.919,1.482c-0.722,1.851-1.478,3.681-2.564,5.354
		c-2.931,4.513-5.765,4.761-9.494,0.842c-0.281-0.296-0.597-0.56-0.992-0.927c-1.288,2.506-2.665,4.836-3.238,7.526
		c-0.473,2.215-1.733,3.717-3.92,4.473c-3.055,1.056-5.998,2.291-8.73,4.122c-2.393,1.604-5.096,2.27-7.992,0.787
		c-2.139-1.095-3.022-2.693-2.941-5.027c0.08-2.295,0.836-4.462,1.362-6.976c-2.899,1.043-2.714,3.69-3.617,5.598
		c-3.093-0.991-4.81-3.706-4.549-7.142c0.209-2.751,1.683-4.879,3.428-6.875c1.424-1.63,3.216-2.87,5.051-4.41
		c-3.249-0.465-3.249-0.465-8.896,4.717c-1.517-1.794-2.111-3.876-1.711-6.091c1.089-6.011,5.965-12.119,13.898-12.043
		c4.068,0.039,7.162,2.476,8.206,6.413c0.026,0.101,0.051,0.202,0.077,0.304c1.388,5.496,3.17,6.348,8.236,3.885
		c3.231-1.569,5.442-4.173,7.095-7.277c2.7-5.073,3.852-10.569,4.187-16.247c0.339-5.748,0.983-11.444,2.654-16.971
		c0.748-2.474,1.506-4.982,3.429-7.054c1.452,1.085,1.438,2.533,1.352,3.977c-0.221,3.706,1.028,6.981,2.931,10.054
		c1.174,1.897,1.438,1.948,3.556,1.059c2.269-0.952,4.063-2.529,5.634-4.379c0.873-1.028,1.705-2.091,2.795-3.431
		c0.265,1.037,0.488,1.856,0.684,2.682c0.701,2.958,2.438,5.255,4.567,7.336c1.167,1.141,2.337,1.125,3.69,0.422
		c1.608-0.835,2.718-2.244,4.267-3.621c1.09,2.981,1.544,6.096,3.528,8.527c1.99,2.438,4.418,4.073,7.511,4.381
		c0.685-0.559,0.336-1.038,0.185-1.508c-1.234-3.839-0.096-7.167,2.138-10.3c0.849-1.19,1.323-1.055,2.326-0.017
		c3.888,4.022,8.443,6.779,14.294,6.67c0.521-0.01,1.049,0.004,1.563-0.073c0.94-0.141,1.934-0.331,2.298-1.356
		c0.37-1.04-0.273-1.855-0.985-2.456c-2.354-1.984-3.737-4.451-4.019-7.522C419.541,148.957,419.499,148.429,420.024,147.753z"/>
	<path fill-rule="evenodd" clip-rule="evenodd" fill="#212529" d="M246.713,6.236c2.401,0,4.805-0.044,7.205,0.013
		c2.132,0.051,2.274,0.186,2.315,2.378c0.06,3.131-0.016,6.265,0.033,9.397c0.035,2.178,0.16,2.347,2.326,2.363
		c6.611,0.048,5.626,0.485,5.706-5.332c0.03-2.192,0.034-4.386-0.003-6.578c-0.023-1.392,0.309-2.143,1.976-1.9
		c4.748,0.689,9.51,1.288,14.275,1.842c1.547,0.18,2.16,0.876,2.132,2.422c-0.061,3.34-0.075,6.683,0.008,10.022
		c0.038,1.502-0.645,2.234-1.933,2.806c-4.675,2.076-9.286,4.298-13.981,6.324c-1.772,0.765-2.563,1.782-2.487,3.768
		c0.137,3.545,0.01,7.099,0.045,10.648c0.025,2.572,0.124,2.719,2.548,2.927c11.574,0.992,22.936,3.132,34.141,6.165
		c2.219,0.601,2.457,0.494,3.275-1.609c1.251-3.209,2.339-6.484,3.636-9.673c0.643-1.581,0.277-2.777-0.688-4.038
		c-2.538-3.314-4.951-6.727-7.547-9.995c-1.174-1.477-1.456-2.813-0.699-4.571c1.114-2.586,2.007-5.266,3.022-7.896
		c0.867-2.247,1.07-2.406,3.479-1.907c3.269,0.677,6.521,1.437,9.762,2.242c1.915,0.477,2.074,0.745,1.432,2.598
		c-0.99,2.859-2.134,5.666-3.168,8.51c-0.886,2.432-0.846,2.469,1.529,3.386c4.941,1.907,4.943,1.908,6.831-3.11
		c0.846-2.247,1.706-4.49,2.504-6.754c0.361-1.025,0.943-1.234,1.919-0.872c4.402,1.636,8.813,3.249,13.225,4.859
		c1.242,0.453,1.107,1.299,0.741,2.277c-1.098,2.933-2.187,5.869-3.25,8.814c-0.889,2.462-0.869,2.558,1.483,3.444
		c5.346,2.015,4.404,2.065,6.278-2.771c0.829-2.141,1.527-4.334,2.387-6.463c0.791-1.96,0.954-2.036,2.698-1.134
		c4.081,2.109,8.109,4.317,12.186,6.435c1.188,0.617,1.316,1.368,0.852,2.549c-1.188,3.01-2.339,6.038-3.372,9.104
		c-0.577,1.713-1.523,2.466-3.392,2.583c-4.476,0.282-8.932,0.867-13.405,1.202c-2.292,0.171-3.666,0.979-4.595,3.313
		c-3.741,9.407-7.737,18.712-11.645,28.053c-1.091,2.606-1.145,2.654-3.575,1.43c-14.659-7.383-30.13-12.303-46.277-15.067
		c-7.613-1.304-15.295-2.024-23.035-2.326c-14.152-0.551-28.153,0.469-42.038,3.2c-14.109,2.775-27.639,7.285-40.551,13.628
		c-0.469,0.23-0.931,0.473-1.405,0.691c-1.99,0.917-2.161,0.923-3.032-1.098c-2.106-4.889-4.124-9.815-6.177-14.728
		c-1.973-4.719-4.045-9.401-5.869-14.177c-0.755-1.978-1.982-2.699-3.94-2.858c-4.68-0.382-9.346-0.939-14.029-1.272
		c-1.709-0.122-2.624-0.76-3.167-2.391c-0.989-2.969-2.122-5.894-3.286-8.8c-0.613-1.53-0.357-2.502,1.185-3.291
		c3.996-2.043,7.946-4.179,11.882-6.336c1.219-0.668,1.885-0.458,2.35,0.865c1.039,2.954,2.125,5.891,3.241,8.816
		c0.905,2.372,1.077,2.426,3.424,1.664c4.654-1.512,4.653-1.512,2.954-6.128c-0.83-2.253-1.605-4.528-2.495-6.758
		c-0.523-1.309-0.38-2.136,1.073-2.655c4.129-1.474,8.237-3.006,12.341-4.551c1.314-0.495,2.092-0.302,2.595,1.182
		c1.073,3.161,2.386,6.241,3.46,9.401c0.5,1.473,1.271,1.73,2.587,1.186c1.157-0.479,2.322-0.952,3.515-1.329
		c1.583-0.5,1.809-1.448,1.247-2.891c-1.174-3.016-2.233-6.076-3.418-9.087c-0.565-1.438-0.206-2.055,1.327-2.361
		c3.376-0.674,6.709-1.56,10.083-2.253c2.262-0.465,2.551-0.253,3.436,2.057c1.008,2.632,1.848,5.333,2.955,7.921
		c0.718,1.68,0.39,2.991-0.638,4.345c-2.523,3.325-4.931,6.742-7.541,9.996c-1.209,1.507-1.356,2.852-0.637,4.586
		c1.241,2.986,2.282,6.055,3.449,9.073c0.869,2.248,0.963,2.327,3.192,1.728c7.97-2.143,16.038-3.806,24.204-4.977
		c3.302-0.474,6.63-0.768,9.945-1.155c2.61-0.306,2.749-0.426,2.778-3.093c0.04-3.549-0.064-7.102,0.046-10.649
		c0.057-1.842-0.637-2.809-2.334-3.54c-4.792-2.065-9.48-4.372-14.261-6.463c-1.479-0.647-2.032-1.568-2.004-3.111
		c0.055-3.132,0.053-6.266-0.006-9.397c-0.03-1.579,0.343-2.505,2.177-2.694c4.668-0.48,9.31-1.212,13.977-1.71
		c2.111-0.225,2.36,0.072,2.406,2.193c0.065,3.027-0.016,6.057,0.039,9.084c0.04,2.214,0.16,2.378,2.3,2.396
		c6.61,0.057,5.633,0.467,5.714-5.329c0.032-2.297,0.031-4.594,0.015-6.891c-0.009-1.3,0.597-1.912,1.892-1.906
		c2.715,0.012,5.429,0.004,8.144,0.004C246.713,6.25,246.713,6.243,246.713,6.236z"/>
	<path fill-rule="evenodd" clip-rule="evenodd" fill="#212529" d="M114.111,279.827c6.12,0.112,12.46,1.8,18.754,3.764
		c1.169,0.365,1.984,1.107,2.781,1.937c6.013,6.254,13.54,8.796,22.022,8.853c2.621,0.018,5.131,0.059,7.615,1.203
		c2.536,1.169,5.324,0.927,8.007,0.358c1.38-0.292,2.615-0.271,3.957,0.251c9.805,3.814,20.091,5.554,30.456,6.904
		c11.815,1.541,23.707,2.155,35.6,2.29c10.848,0.124,21.696-0.341,32.52-1.355c9.053-0.849,18.04-2.001,26.92-3.968
		c4.188-0.928,8.299-2.099,12.277-3.697c1.605-0.645,3.147-0.804,4.873-0.385c2.906,0.707,5.843,0.505,8.585-0.741
		c1.583-0.72,3.157-0.939,4.858-0.854c4.425,0.226,8.74-0.389,12.939-1.831c3.92-1.348,7.355-3.451,10.252-6.428
		c1.019-1.047,2.014-2.112,3.49-2.564c6.803-2.081,13.642-4.039,20.854-3.707c8.244,0.38,6.884,0.818,7.121,7.292
		c0.101,2.726-0.143,5.434-1.239,7.986c-0.983,2.288-1.58,2.65-4.065,2.506c-2.085-0.121-4.104-0.693-6.209-0.766
		c-10.736-0.37-20.767,2.417-30.047,7.476c-13.282,7.241-27.522,11.452-42.195,14.468c-22.011,4.525-44.294,5.623-66.687,4.82
		c-19.335-0.694-38.511-2.816-57.362-7.349c-11.595-2.787-22.964-6.192-33.561-11.865c-7.141-3.822-14.756-6.352-22.847-7.278
		c-3.854-0.441-7.7-0.39-11.549,0.192c-4.55,0.688-5.492,1.238-6.945-4.943c-0.747-3.176-0.708-6.396-0.266-9.647
		c0.212-1.557,0.986-2.177,2.324-2.471C109.401,279.824,111.489,279.818,114.111,279.827z"/>
	<path fill-rule="evenodd" clip-rule="evenodd" fill="#212529" d="M134.823,322.116c-5.866,2.786-11.569,3.46-17.473,2.692
		c-6.518-0.848-12.498-3.207-18.07-6.651c-3.928-2.429-8-4.481-12.647-5.184c-4.366-0.66-8.468-0.137-12.398,2.031
		c-5.144,2.838-10.747,4.157-16.584,3.629c-7.124-0.645-13.055-3.554-16.434-10.298c-0.687-1.37-1.331-2.831-0.954-4.971
		c2.995,3.575,6.296,5.454,10.985,3.337c-2.052-2.858-5.177-5.092-4.796-9.236c1.734,0.569,3.204,0.997,4.135,2.638
		c0.861,1.517,2.511,2.095,4.177,2.512c4.189,1.049,8.305,0.235,12.4-0.517c4.209-0.772,8.328-1.952,12.346-3.436
		c1.45-0.534,2.698-0.685,4.132,0.203c3.025,1.871,6.062,1.451,8.693-0.771c1.378-1.164,2.648-1.448,4.283-0.915
		c2.875,0.937,5.762,1.839,8.661,2.695c1.349,0.399,1.603,1.027,0.917,2.275c-0.602,1.094-0.866,2.332-0.965,3.602
		c-0.436,5.563,1.877,9.188,7.124,11.109c3.598,1.317,7.341,1.506,11.111,1.372c2.653-0.095,5.193,0.352,7.641,1.344
		C132.352,320.083,133.531,320.706,134.823,322.116z"/>
	<path fill-rule="evenodd" clip-rule="evenodd" fill="#212529" d="M446.393,297.475c-0.096,3.483-0.306,3.875-4.671,8.841
		c2.884,2.405,5.236,1.833,11.161-2.869c-0.358,3.537-1.494,6.453-3.83,8.803c-4.682,4.71-10.416,6.825-17.015,6.441
		c-4.405-0.257-8.785-1.004-12.62-3.28c-6.815-4.046-13.57-3.127-20.404-0.262c-2.126,0.892-4.028,2.188-6.002,3.359
		c-7.14,4.231-14.773,6.755-23.171,6.568c-3.271-0.073-6.414-0.771-9.463-1.916c-0.657-0.247-1.572-0.367-1.683-1.196
		c-0.141-1.059,0.91-1.286,1.598-1.664c2.512-1.385,5.209-2.084,8.092-2.068c2.918,0.017,5.849,0.174,8.722-0.536
		c1.112-0.274,2.246-0.498,3.319-0.888c6.218-2.256,8.702-7.465,6.612-13.774c-0.876-2.643-0.89-2.683,1.81-3.588
		c2.373-0.796,4.788-1.465,7.17-2.234c1.604-0.519,2.95-0.39,4.332,0.785c2.744,2.335,5.848,2.721,8.973,0.793
		c1.354-0.835,2.508-0.602,3.843-0.145c5.535,1.895,11.155,3.469,16.979,4.205c2.707,0.342,5.401,0.431,8.084-0.24
		c1.677-0.42,3.281-1.126,4.146-2.593C443.338,298.383,444.815,298.02,446.393,297.475z"/>
	<path fill-rule="evenodd" clip-rule="evenodd" fill="#212529" d="M370.249,316.239c-2.93,0.011-5.82,0.314-8.649,1.113
		c-1.617,0.456-3.127,1.106-4.484,2.129c-1.463,1.102-1.863,1.028-2.846-0.492c-1.169-1.808-1.528-3.839-1.527-5.965
		c0.001-3.05,0.028-6.344,1.738-8.75c1.383-1.947,4.468-1.913,6.861-2.548c4.546-1.206,9.159-1.955,13.893-1.771
		c1.787,0.07,3.529,0.335,5.186,0.998c5.23,2.094,6.348,7.586,2.341,11.567c-2.674,2.657-6.104,3.433-9.7,3.707
		C372.129,316.299,371.187,316.239,370.249,316.239z"/>
	<path fill-rule="evenodd" clip-rule="evenodd" fill="#212529" d="M136.917,320.528c-3.19-3.105-7.113-3.718-11.073-4.131
		c-1.859-0.194-3.745-0.146-5.62-0.167c-2.541-0.028-4.94-0.618-7.247-1.665c-1.458-0.661-2.678-1.631-3.666-2.857
		c-2.858-3.548-1.897-8.207,2.137-10.319c1.677-0.878,3.508-1.275,5.407-1.389c6.996-0.419,13.641,1.265,20.228,3.322
		c0.84,0.263,1.491,0.691,1.735,1.606c0.973,3.643,1.762,7.299,0.946,11.093C139.334,318.02,138.896,318.72,136.917,320.528z"/>
	<path fill-rule="evenodd" clip-rule="evenodd" fill="#212529" d="M75.737,287.701c2.722-1.016,5.423-1.597,8.251-1.436
		c4.881,0.277,7.904,4.367,6.784,9.146c-0.409,1.742-2.168,2.718-3.883,1.913c-1.389-0.651-2.801-1.466-3.633-2.84
		C80.852,290.514,80.558,290.238,75.737,287.701z"/>
	<path fill-rule="evenodd" clip-rule="evenodd" fill="#212529" d="M416.87,287.838c-3.339,1.159-5.522,3.422-7.099,6.369
		c-0.778,1.455-2.197,2.238-3.542,2.971c-2.054,1.117-3.964-0.055-4.214-2.404c-0.555-5.2,2.303-8.438,7.495-8.527
		C412.049,286.204,414.456,286.787,416.87,287.838z"/>
	<path fill-rule="evenodd" clip-rule="evenodd" fill="#FFFFFF" d="M181.626,117.224c6.59-7.664,35.247-17.428,55.701-18.82
		c29.847-2.031,57.561,6.522,74.105,18.706C309.306,117.817,184.711,117.927,181.626,117.224z"/>
	<path fill-rule="evenodd" clip-rule="evenodd" fill="#212529" d="M148.576,90.977c-4.856-2.484-8.403-6.354-11.639-10.507
		c0.679-1.049,1.625-0.912,2.373-1.22c1.349-0.554,2.727-1.052,4.029-1.702c0.834-0.416,1.668-1.036,1.539-2.148
		c-0.142-1.217-1.206-1.276-2.121-1.454c-0.409-0.08-0.833-0.083-1.242-0.161c-7.592-1.435-13.502-5.333-17.492-12.009
		c-1.249-2.089-1.233-2.115,0.642-3.658c0.986-0.811,1.779-1.758,2.29-2.931c0.357-0.82,0.423-1.542-0.349-2.252
		c-3.057-2.813-4.857-6.496-6.8-10.068c-0.917-1.685-2-3.19-3.765-4.055c-2.666-1.306-4.411-3.464-5.607-6.091
		c-0.603-1.324-0.967-2.755-1.537-4.096c-0.829-1.952-3.037-3.33-4.983-3.146c-2.142,0.203-3.417,1.378-3.771,3.526
		c-0.42,2.543-1.992,4.302-3.971,5.776c-6.292,4.688-12.949,8.771-20.003,12.215c-2.673,1.305-5.14,2.821-5.454,6.272
		c-0.071,0.773-0.608,1.554-1.072,2.233c-1.845,2.7-3.954,4.968-7.272,6.07c-3.916,1.301-5.666,6.081-3.15,8.845
		c2.798,3.073,4.185,6.644,5.334,10.464c1.903,6.327,5.675,7.303,10.587,2.79c1.619-1.488,2.938-3.24,4.318-4.947
		c2.404-2.973,5.254-5.408,9.178-6.084c1.833-0.316,3.665,0.022,4.722,1.716c1.123,1.8,0.595,3.635-0.569,5.268
		c-1.112,1.561-2.649,2.647-4.308,3.563c-3.219,1.776-6.648,3-10.209,3.881c-1.112,0.275-2.24,0.52-3.317,0.903
		c-4.307,1.531-5.696,4.657-4.019,8.926c0.424,1.08,1.016,2.065,1.783,2.928c1.655,1.861,3.671,2.242,5.935,1.157
		c1.05-0.504,1.858-1.323,2.74-2.06c2.006-1.678,5.153-1.883,7.33-0.535c1.424,0.882,2.343,2.144,2.186,3.871
		c-0.146,1.598-1.463,2.244-2.779,2.631c-2.307,0.679-4.669,1.215-7.088,0.606c-1.894-0.477-3.512-0.071-4.874,1.307
		c-2.647,2.679-5.968,4.155-9.458,5.322c-1.748,0.585-3.518,1.103-5.51,1.724c2.34,3.841,6.159,4.813,10.602,6.192
		c-7.146,2.801-10.872,8.744-17.084,12.201c5.59,2.147,10.644,2.938,15.706,0.03c0.874,3.834,0.406,5.334-2.356,7.504
		c-1.913,1.502-4.15,2.364-6.418,3.183c-1.05,0.38-2.302,0.318-3.131,1.269c4.757,3.731,10.215,3.523,15.145-0.513
		c0.818-0.67,1.394-1.742,2.954-2.06c-0.751,2.772,0.124,5.225-0.047,7.729c-0.178,2.601-1.26,4.969-2.102,7.949
		c6.913-2.765,10.262-8.258,13.796-13.854c0.3,6.157,4.764,10.372,6.58,16.174c3.642-3.846,3.929-8.021,3.337-12.368
		c-0.196-1.443-0.572-2.861-0.537-4.335c0.027-1.099,0.173-2.226,1.487-2.389c1.288-0.16,1.425,0.995,1.606,1.896
		c0.399,1.978,1.11,3.826,2.372,5.396c1.053,1.31,2.329,2.788,4.121,2.372c1.474-0.341,1.889-2.09,2.367-3.461
		c0.939-2.692,1.285-5.49,1.159-8.324c-0.073-1.638,0.623-2.644,2.138-2.967c1.542-0.329,2.596,0.533,3.265,1.843
		c0.329,0.644,0.487,1.374,0.741,2.058c0.661,1.781,1.542,3.452,2.945,4.749c1.28,1.183,2.715,2.939,4.5,2.15
		c1.528-0.675,1.558-2.788,1.674-4.474c0.258-3.74-0.767-7.229-2.035-10.679c-0.304-0.828-1.192-1.782-0.366-2.548
		c0.807-0.749,2.008-0.408,2.984-0.028c0.769,0.3,1.47,0.782,2.179,1.221c2.137,1.321,4.351,2.479,6.745,3.269
		c1.312,0.432,2.659,0.59,4.016,0.357c1.489-0.255,2.375-1.219,2.76-2.655c0.452-1.686-1.008-1.818-1.946-2.307
		c-3.612-1.883-6.393-4.66-8.644-7.994c-0.738-1.093-0.276-1.95,1.013-2.149c1.055-0.163,1.771,0.423,2.506,1.034
		c1.383,1.147,2.917,2.035,4.693,2.402c1.287,0.266,2.604,0.484,3.802-0.622c-1.189-1.296-2.013-2.662-2.073-4.271
		c-0.105-2.84-1.405-5.199-2.762-7.556c-0.556-0.967-1.139-1.918-1.69-2.846c0.877-0.845,1.889-0.806,2.715-1.213
		c0.941-0.463,1.899-0.888,2.635-1.653c1.466-1.523,1.299-2.525-0.658-3.506c-1.61-0.807-3.104-1.768-4.216-3.179
		c-1.216-1.542-2.193-3.218-1.582-5.503c2.412,0.945,4.482,2.201,6.804,2.827c1.833,0.495,3.684,0.862,5.534,0.163
		c0.931-0.352,1.595-1.125,1.689-2.094C150.215,91.314,149.176,91.284,148.576,90.977z M83.642,58.305
		c-1.036,3.126-3.923,4.159-6.814,3.073c-0.966-0.363-1.306-0.899-1.125-1.873c0.491-2.637,1.933-4.592,4.336-5.728
		c1.419-0.671,2.8-1.364,3.974-2.41c1.392-1.241,2.869-1.533,4.632-0.458C86.357,52.985,84.634,55.313,83.642,58.305z"/>
	<path fill-rule="evenodd" clip-rule="evenodd" fill="#212529" d="M423.82,138.961c-2.165-2.148-2.446-3.772-1.179-6.646
		c5.051,2.951,10.02,1.94,15.506-0.05c-2.294-1.698-4.597-2.466-6.033-4.279c-2.262-2.853-5.311-4.65-8.251-6.621
		c-0.66-0.442-1.62-0.545-1.894-1.494c7.066-2.593,7.545-2.893,9.518-6.09c-1.315-0.394-2.593-0.756-3.858-1.157
		c-4.102-1.3-8.074-2.827-11.182-6.003c-1.269-1.298-2.86-1.578-4.616-1.141c-2.53,0.629-5.004,0.146-7.375-0.686
		c-2.944-1.032-3.483-3.372-1.401-5.592c0.969-1.032,2.224-1.538,3.624-1.641c2.2-0.162,3.955,0.605,5.647,2.106
		c3.55,3.149,6.993,2.377,9.133-1.838c0.374-0.737,0.675-1.537,0.851-2.343c0.761-3.486-0.485-5.925-3.8-7.264
		c-1.344-0.543-2.789-0.849-4.202-1.208c-3.556-0.903-6.991-2.125-10.187-3.936c-1.73-0.981-3.338-2.164-4.396-3.916
		c-0.925-1.531-1.156-3.214-0.28-4.768c0.846-1.497,2.429-1.844,4.076-1.826c1.509,0.017,2.868,0.543,4.143,1.276
		c2.469,1.421,4.579,3.243,6.263,5.574c1.719,2.38,3.662,4.576,6.229,6.084c2.997,1.761,5.402,1.092,7.053-1.972
		c0.538-1.001,0.93-2.104,1.237-3.202c0.996-3.548,2.188-6.978,4.985-9.582c0.563-0.524,0.773-1.207,0.928-1.938
		c0.77-3.646-0.656-6.117-4.439-7.487c-4.037-1.462-6.697-4.437-7.806-8.351c-0.849-2.994-2.663-4.634-5.142-5.818
		c-6.611-3.159-12.79-7.027-18.79-11.201c-2.698-1.877-4.91-4.02-5.727-7.487c-0.704-2.995-3.898-3.922-6.451-2.216
		c-1.363,0.911-2.069,2.224-2.556,3.792c-1.073,3.458-2.727,6.64-6.052,8.429c-2.144,1.153-3.527,2.804-4.641,4.881
		c-1.673,3.124-3.331,6.272-5.797,8.887c-1.624,1.723-1.709,2.398-0.378,4.212c0.486,0.663,1.054,1.396,1.759,1.745
		c1.748,0.866,1.481,1.897,0.667,3.274c-4.02,6.79-9.924,10.839-17.642,12.303c-0.717,0.136-1.47,0.136-2.159,0.35
		c-1.563,0.482-1.817,1.674-0.577,2.799c1.183,1.072,2.71,1.505,4.162,2.094c0.997,0.405,2.306,0.214,3.088,1.467
		c-3.308,4.25-6.89,8.114-11.784,10.563c-1.649,0.826-1.721,1.89-0.283,2.957c0.984,0.731,2.134,0.773,3.291,0.71
		c2.014-0.109,3.863-0.83,5.71-1.563c1.331-0.528,2.515-1.427,4.1-1.724c0.298,2.5-0.739,4.337-2.258,5.992
		c-1.224,1.333-2.745,2.225-4.404,2.905c-1.148,0.471-1.213,1.255-0.685,2.267c0.566,1.083,1.497,1.739,2.542,2.228
		c1.107,0.517,2.268,0.923,3.616,1.461c-0.7,1.175-1.338,2.225-1.953,3.287c-1.048,1.808-2.16,3.613-2.391,5.736
		c-0.235,2.17-0.663,4.237-2.392,5.952c2.919,1.322,5.165,0.302,7.336-1.032c0.795-0.489,1.46-1.193,2.262-1.666
		c0.889-0.523,1.876-0.429,2.618,0.282c0.902,0.864-0.045,1.521-0.473,2.133c-2.312,3.303-5.198,5.956-8.845,7.76
		c-1.751,0.866-1.925,1.854-0.728,3.371c0.687,0.869,1.591,1.305,2.699,1.373c1.49,0.091,2.906-0.208,4.286-0.733
		c2.352-0.895,4.543-2.098,6.647-3.465c1.468-0.954,2.984-1.46,4.679-0.692c0.302,0.951-0.271,1.665-0.573,2.409
		c-1.026,2.53-1.688,5.152-2.09,7.842c-0.332,2.212-0.087,4.362,0.791,6.438c0.516,1.218,1.308,1.502,2.485,0.929
		c1.531-0.746,2.794-1.795,3.834-3.144c1.166-1.512,1.85-3.249,2.503-5.017c0.707-1.913,1.966-2.849,3.37-2.628
		c1.57,0.247,2.277,1.297,2.339,3.465c0.033,1.147,0.024,2.299,0.122,3.44c0.189,2.202,0.7,4.333,1.781,6.276
		c1.151,2.07,2.033,2.256,3.983,0.892c1.404-0.982,2.421-2.307,3.037-3.896c0.451-1.163,0.819-2.363,1.129-3.571
		c0.193-0.754,0.371-1.474,1.289-1.49c1.006-0.017,1.446,0.692,1.658,1.569c0.357,1.479-0.012,2.92-0.348,4.331
		c-0.62,2.604-0.539,5.193,0.076,7.754c0.482,2.009,1.205,3.944,3.193,5.139c0.783-1.786,1.262-3.553,2.242-4.974
		c2.28-3.308,3.714-6.876,4.074-11.582c2.06,3.416,3.667,6.319,5.879,8.793c3.151,3.525,5.527,5.045,8.13,5.061
		c-2.631-4.761-2.359-9.787-1.614-14.854c7.762,6.045,13.271,6.767,17.416,2.156c-1.333-0.433-2.626-0.806-3.885-1.273
		C427.939,141.777,425.646,140.773,423.82,138.961z M408.677,51.271c1.255,1.095,2.714,1.862,4.239,2.564
		c2.313,1.066,3.595,3.057,4.231,5.484c0.291,1.106-0.09,1.699-1.219,2.075c-2.792,0.929-5.394,0.171-6.513-2.592
		c-1.217-3.008-2.577-5.816-5.325-7.862C405.948,49.928,407.335,50.101,408.677,51.271z"/>
</g>
<g id="Layer_2">
	<g>
		<path fill="#FFFFFF" d="M208.881,191.771l-3.704-0.145l-5.128,0.073c-2.564,0.096-4.415,0.14-5.556,0.14
			c-0.284,0-0.57-0.105-0.854-0.319c-0.286-0.213-0.428-0.462-0.428-0.749c0-0.805,0.45-1.328,1.353-1.566
			c1.853-0.378,3.099-0.864,3.739-1.459c0.641-0.592,0.961-1.602,0.961-3.028v-32.332c0-1.52-0.309-2.588-0.924-3.206
			c-0.618-0.616-1.877-1.139-3.776-1.567c-0.903-0.238-1.353-0.76-1.353-1.566c0-0.287,0.142-0.535,0.428-0.749
			c0.284-0.214,0.57-0.32,0.854-0.32c1.757,0,3.608,0.071,5.556,0.213c2.564,0.095,4.272,0.142,5.128,0.142
			c0.758,0,2.896-0.095,6.41-0.284c5.223-0.238,8.094-0.355,8.617-0.355c4.417,0,8.536,0.973,12.358,2.919
			c3.822,1.948,6.872,4.676,9.152,8.19c2.279,3.515,3.418,7.502,3.418,11.964c0,4.273-0.998,8.274-2.991,12.002
			c-1.994,3.727-4.926,6.717-8.795,8.973c-3.871,2.255-8.464,3.382-13.78,3.382C217.426,192.125,213.867,192.008,208.881,191.771z
			 M228.679,183.332c2.281-3.251,3.42-7.752,3.42-13.497c0-6.458-1.211-11.574-3.634-15.35c-2.42-3.773-6.007-5.661-10.754-5.661
			c-2.422,0-4.084,0.13-4.987,0.391c-0.9,0.261-1.352,0.916-1.352,1.96v30.912c0,2.184,0.559,3.751,1.673,4.701
			c1.116,0.946,2.91,1.422,5.377,1.422C222.981,188.209,226.401,186.581,228.679,183.332z"/>
		<path fill="#FFFFFF" d="M247.581,190.771c0-0.427,0.125-0.743,0.39-0.958c0.258-0.213,0.653-0.415,1.177-0.608
			c1.423-0.378,2.643-0.97,3.667-1.781c1.02-0.805,1.768-1.731,2.242-2.775c4.512-10.493,8.569-20.796,12.18-30.909
			c0.567-1.567,1.021-2.979,1.354-4.238c0.328-1.258,0.542-1.888,0.639-1.888c2.043-0.474,3.823-0.973,5.342-1.495
			c0.81-0.285,1.564-0.665,2.281-1.14c0.713-0.474,1.26-0.926,1.637-1.354c0.379-0.188,0.617-0.284,0.711-0.284
			c0.238,0,0.429,0.166,0.572,0.499c0.329,0.712,0.593,1.378,0.781,1.994c2.944,9.591,6.2,19.8,9.761,30.622l2.634,8.193
			c0.662,2.184,2.563,3.707,5.697,4.557c0.521,0.193,0.912,0.383,1.177,0.572c0.257,0.189,0.391,0.496,0.391,0.923
			c0,0.334-0.134,0.593-0.391,0.786c-0.265,0.188-0.585,0.285-0.964,0.285c-0.951,0-2.852-0.05-5.699-0.145
			c-2.942-0.094-4.984-0.141-6.124-0.141c-0.951,0-2.756,0.047-5.411,0.141c-2.186,0.145-4.18,0.213-5.985,0.213
			c-0.427,0-0.78-0.094-1.067-0.282c-0.284-0.188-0.429-0.451-0.429-0.786c0-0.805,0.521-1.328,1.565-1.566
			c1.668-0.329,2.888-0.744,3.669-1.245c0.786-0.499,1.177-1.196,1.177-2.104c0-0.471-0.045-0.85-0.143-1.139l-2.205-8.263
			c-0.094-0.426-0.226-0.732-0.396-0.924c-0.166-0.189-0.415-0.284-0.743-0.284H264.67c-0.379,0-0.641,0.095-0.781,0.284
			c-0.143,0.191-0.286,0.498-0.428,0.924l-0.999,3.065c-0.137,0.524-0.354,1.209-0.641,2.063c-0.282,0.856-0.524,1.616-0.712,2.28
			c-0.19,0.62-0.283,1.237-0.283,1.853c0,0.902,0.346,1.6,1.031,2.103c0.688,0.496,1.913,0.958,3.669,1.386
			c1.043,0.238,1.567,0.762,1.567,1.566c0,0.667-0.498,1-1.497,1c-1.09,0-2.494-0.05-4.204-0.145l-3.845-0.069
			c-1.327,0-2.634,0.069-3.915,0.214c-0.428,0.043-1.069,0.093-1.924,0.141c-0.856,0.048-1.611,0.072-2.279,0.072
			C248.196,191.984,247.581,191.583,247.581,190.771z M275.569,171.115c0.711,0,1.069-0.166,1.069-0.497
			c0-0.048-0.05-0.311-0.146-0.784l-4.556-15.74c-0.143-0.475-0.288-0.714-0.428-0.714c-0.096,0-0.238,0.239-0.428,0.714
			l-5.485,15.74c-0.095,0.189-0.142,0.378-0.142,0.57c0,0.237,0.117,0.416,0.354,0.531c0.237,0.122,0.522,0.18,0.855,0.18H275.569z"
			/>
		<path fill="#FFFFFF" d="M233.274,252.734c-2.09-1.234-3.987-2.991-5.698-5.268c-1.708-2.327-3.229-4.561-4.557-6.695
			c-1.33-2.139-2.612-4.556-3.846-7.268c-0.476-1.043-1.045-1.755-1.708-2.134c-0.523-0.331-1.093-0.496-1.71-0.496
			c-0.475,0-0.712,0.472-0.712,1.422v13.817c0,1.423,0.393,2.422,1.176,2.989c0.784,0.572,2.243,1.096,4.379,1.567
			c0.475,0.097,0.818,0.265,1.033,0.497c0.214,0.24,0.321,0.572,0.321,1c0,0.711-0.381,1.069-1.14,1.069l-6.197-0.144l-5.768-0.145
			c-0.856,0-2.564,0.05-5.128,0.145c-1.901,0.144-3.751,0.213-5.556,0.213c-0.284,0-0.569-0.106-0.853-0.32
			c-0.286-0.213-0.428-0.466-0.428-0.748c0-0.806,0.45-1.329,1.353-1.567c1.85-0.378,3.098-0.867,3.738-1.459
			c0.642-0.592,0.962-1.604,0.962-3.028v-32.331c0-1.521-0.286-2.604-0.856-3.24c-0.569-0.644-1.708-1.151-3.417-1.535
			c-0.997-0.236-1.497-0.735-1.497-1.492c0-0.332,0.131-0.609,0.393-0.823c0.26-0.214,0.604-0.319,1.032-0.319
			c1.708,0,3.608,0.099,5.698,0.288c1.899,0.188,3.394,0.281,4.486,0.281c0.902,0,2.208-0.093,3.917-0.281
			c2.088-0.288,4.203-0.429,6.34-0.429c5.697,0,10.051,0.951,13.069,2.85c3.014,1.896,4.521,4.745,4.521,8.546
			c0,2.895-0.903,5.234-2.706,7.016c-1.806,1.78-4.012,3.048-6.623,3.809c-0.144,0.05-0.214,0.17-0.214,0.357
			c0,0.191,0.046,0.354,0.142,0.497c2.375,3.562,4.559,6.647,6.553,9.258c1.993,2.611,3.939,4.819,5.839,6.625
			c1.472,1.379,3.001,2.254,4.594,2.637c1.591,0.378,3.498,0.566,5.732,0.566c0.713,0,1.067,0.453,1.067,1.354
			c0,3.183-3.038,4.773-9.116,4.773C238.234,254.588,235.362,253.971,233.274,252.734z M223.124,226.028
			c1.258-1.615,1.888-3.819,1.888-6.626c0-3.321-0.617-5.776-1.851-7.368c-1.237-1.592-3.017-2.385-5.342-2.385
			c-0.997,0-1.708,0.439-2.136,1.315c-0.428,0.881-0.642,2.624-0.642,5.234v9.545c0,1.802,0.83,2.706,2.492,2.706
			C220.002,228.45,221.867,227.644,223.124,226.028z"/>
		<path fill="#FFFFFF" d="M256.375,253.092c-0.237-0.239-0.355-0.498-0.355-0.784s0.13-0.569,0.391-0.853
			c0.262-0.289,0.604-0.503,1.03-0.642c1.661-0.477,2.793-0.999,3.385-1.567c0.592-0.571,0.887-1.541,0.887-2.92v-32.476
			c0-1.521-0.282-2.604-0.849-3.24c-0.573-0.644-1.712-1.151-3.423-1.535c-0.994-0.236-1.492-0.735-1.492-1.492
			c0-0.332,0.127-0.609,0.391-0.823c0.257-0.214,0.604-0.319,1.031-0.319c1.712,0,3.493,0.073,5.342,0.213
			c2.372,0.096,4.011,0.144,4.915,0.144c6.362,0,11.894-0.068,16.595-0.214c1.471,0,2.716-0.094,3.739-0.283
			c1.019-0.188,1.604-0.284,1.745-0.284c0.426,0,0.83,0.115,1.212,0.354c0.374,0.241,0.589,0.616,0.64,1.139
			c0.139,1.567,0.354,3.016,0.643,4.348c0.377,2.658,0.565,4.414,0.565,5.269c0,0.427-0.082,0.774-0.244,1.032
			c-0.17,0.263-0.396,0.396-0.681,0.396c-0.283,0-0.561-0.109-0.817-0.322c-0.264-0.214-0.487-0.511-0.679-0.892
			c-0.711-1.756-1.235-2.964-1.566-3.63c-0.331-0.668-0.738-1.235-1.208-1.713c-0.669-0.662-1.404-1.208-2.211-1.638
			c-0.807-0.428-1.806-0.641-2.989-0.641h-4.485c-1.19,0-2.164,0.297-2.92,0.894c-0.762,0.593-1.14,1.385-1.14,2.385v13.101
			c0,1.14,0.617,1.712,1.85,1.712h6.055c1.089,0,1.913-0.357,2.453-1.068c0.548-0.712,1.108-1.825,1.675-3.347
			c0.383-0.858,0.879-1.285,1.497-1.285c0.239,0,0.453,0.157,0.643,0.464c0.188,0.311,0.257,0.701,0.213,1.178
			c-0.239,2.278-0.358,4.248-0.358,5.909c0,2.045,0.095,4.016,0.287,5.915v0.565c0,0.951-0.237,1.428-0.715,1.428
			c-0.328,0-0.663-0.168-0.994-0.502c-0.333-0.329-0.572-0.736-0.712-1.208c-0.427-1.615-0.923-2.8-1.496-3.562
			c-0.571-0.761-1.284-1.14-2.14-1.14h-6.689c-1.045,0-1.567,0.548-1.567,1.638v13.46c0,1.282,0.27,2.207,0.818,2.78
			c0.542,0.565,1.434,0.854,2.668,0.854h6.339c2.188,0,3.92-0.546,5.202-1.641c1.376-1.14,2.729-3.039,4.06-5.695
			c0.282-0.573,0.733-0.854,1.351-0.854c0.474,0,0.713,0.473,0.713,1.421c0,0.855-0.121,1.78-0.354,2.781
			c-0.239,0.994-0.621,2.304-1.145,3.915l-0.778,2.704c-0.192,0.573-0.762,0.856-1.713,0.856l-2.775-0.07
			c-9.262-0.144-16.121-0.213-20.583-0.213c-1.616,0-3.349,0.069-5.197,0.213c-2.474,0.095-4.159,0.144-5.06,0.144
			C256.942,253.449,256.608,253.33,256.375,253.092z"/>
	</g>
	<g display="none">
		<path display="inline" fill="#FFFFFF" d="M213.862,189.116c-4.911-0.219-6.329-0.546-8.948-0.546
			c-5.784,0-7.203,0.546-7.203,0.546s2.565-1.256,2.565-6.876v-34.376c0-5.62-2.565-6.821-2.565-6.821s1.528,0.491,7.585,0.491
			c1.801,0,8.458-0.545,8.566-0.545c14.078-0.655,26.956,8.294,26.956,24.445C240.818,179.73,229.577,189.006,213.862,189.116z
			 M230.232,165.434c0-13.423-5.511-23.463-15.388-23.463c-2.837,0-4.475,0.437-4.529,3.383c0.054,3.929,0.054,36.122,0.054,39.068
			c0,3.492,3.22,3.711,4.475,3.711C225.703,188.133,230.232,177.766,230.232,165.434z"/>
		<path display="inline" fill="#FFFFFF" d="M294.995,189.061c0,0-1.527-0.491-7.584-0.491c-5.948,0.054-7.585,0.491-7.585,0.491
			s3.328-1.364,1.91-6.712c-0.055-0.163-0.164-0.382-4.202-12.55c-0.327-0.709-1.146-2.074-2.892-2.074h-14.405
			c-0.818,2.401-2.128,6.166-3.22,9.548c-2.236,6.604-2.073,10.368,3.547,11.842h-14.842c5.184-0.818,8.294-6.657,9.658-11.077
			c4.146-12.004,12.823-37.05,12.823-37.104c0.055,0,2.892,0.437,7.257,0.437c3.602,0,3.492-0.218,5.729-0.546
			c0,0-1.801,2.237-0.055,8.785l10.586,34.376C292.867,188.024,294.995,189.061,294.995,189.061z M276.062,165.106l-7.258-22.263
			c-1.255,3.765-4.856,14.187-8.13,23.681h13.969C275.897,166.525,276.17,166.088,276.062,165.106z"/>
		<path display="inline" fill="#FFFFFF" d="M246.847,260.224c0,0-2.456-0.108-6.33-0.108c-4.474,0-7.093-1.311-9.495-4.584
			l-11.35-16.861v-1.363h0.873c5.621,0,10.75-4.802,10.75-12.878c0-6.329-2.946-11.567-8.73-11.567h-2.946
			c-2.51,0.109-2.837,1.964-2.837,4.692v35.74c0,5.62,2.564,6.821,2.564,6.821s-1.528-0.492-7.584-0.492
			c-5.948,0-7.584,0.492-7.584,0.492s2.619-1.201,2.619-6.821v-34.54c0-5.62-2.619-6.82-2.619-6.82s1.527,0.437,7.53,0.437
			c1.364,0,8.567-0.71,9.112-0.71h4.038c8.403,0,15.933,4.966,15.933,13.369c0,6.275-3.71,11.459-10.858,12.932l10.477,15.77
			C244.173,259.351,246.847,260.224,246.847,260.224z"/>
		<path display="inline" fill="#FFFFFF" d="M288.528,260.116l-36.231-0.055c0,0,2.564-1.201,2.564-6.821v-34.376
			c0-5.62-2.564-6.82-2.564-6.82l36.231-0.055l-3.165,19.152c0-0.164,1.201-18.17-10.203-18.17h-6.984
			c-1.474,0-3.273,0.764-3.273,3.383v18.771c0.163,1.637,0.49,2.292,2.236,2.292c7.967,0,10.095-7.694,10.422-9.168v19.207
			c0-0.108-2.455-9.058-10.586-9.003c-1.363,0.055-1.964,0.982-2.072,2.292v15.006c0,2.619,1.8,3.383,3.273,3.383h6.984
			c11.459,0,10.203-18.007,10.203-18.225L288.528,260.116z"/>
	</g>
</g>
<g display="none">
	<path display="inline" fill="#FFFFFF" d="M212.867,191.522c-4.014-0.188-7-0.28-8.96-0.28c-0.84,0-2.054,0.046-3.64,0.14
		c-1.774,0.094-3.314,0.141-4.62,0.141c-1.214,0-1.82-0.303-1.82-0.91c0-0.373,0.151-0.641,0.455-0.805
		c0.303-0.164,0.828-0.315,1.575-0.455c1.773-0.326,2.998-0.84,3.675-1.541c0.676-0.699,1.015-1.842,1.015-3.43v-31.64
		c0-1.586-0.327-2.718-0.98-3.395c-0.654-0.676-1.89-1.201-3.71-1.575c-0.747-0.14-1.272-0.303-1.575-0.49
		c-0.304-0.186-0.455-0.466-0.455-0.84c0-0.326,0.163-0.571,0.49-0.735c0.326-0.163,0.77-0.245,1.33-0.245
		c1.166,0,2.636,0.047,4.41,0.14l4.13,0.07c1.073,0,3.383-0.093,6.93-0.28c3.173-0.186,5.133-0.28,5.88-0.28
		c5.553,0,10.278,0.969,14.175,2.905c3.896,1.937,6.825,4.585,8.785,7.945c1.96,3.36,2.94,7.187,2.94,11.48
		c0,4.34-1.062,8.365-3.185,12.074c-2.124,3.711-5.064,6.675-8.82,8.891c-3.757,2.217-7.945,3.325-12.565,3.325
		C217.02,191.732,215.2,191.662,212.867,191.522z M226.412,186.342c2.59-1.681,4.585-4.025,5.985-7.035
		c1.4-3.01,2.1-6.476,2.1-10.396c0-4.246-0.817-7.968-2.45-11.165c-1.634-3.196-3.827-5.646-6.58-7.35
		c-2.754-1.703-5.74-2.555-8.96-2.555c-2.24,0-3.909,0.059-5.005,0.175c-1.097,0.117-1.96,0.444-2.59,0.98
		c-0.63,0.537-0.945,1.389-0.945,2.555v30.94c0,2.427,0.84,4.095,2.52,5.005c1.68,0.91,3.99,1.365,6.93,1.365
		C220.823,188.862,223.822,188.022,226.412,186.342z"/>
	<path display="inline" fill="#FFFFFF" d="M248.917,191.346c-0.373-0.162-0.56-0.407-0.56-0.734c0-0.653,0.699-1.189,2.1-1.61
		c1.354-0.372,2.531-0.956,3.535-1.75c1.002-0.793,1.808-1.913,2.414-3.36c2.427-5.553,4.586-10.72,6.476-15.504
		c1.89-4.783,3.978-10.348,6.265-16.695c0.653-1.68,1.073-3.22,1.26-4.62c1.354-0.326,2.474-0.723,3.361-1.19
		c0.559-0.28,1.014-0.711,1.364-1.295c0.351-0.583,0.571-0.945,0.665-1.085c0.279-0.186,0.49-0.14,0.63,0.14
		c0.14,0.234,0.256,0.514,0.351,0.84c0.092,0.327,0.162,0.607,0.209,0.84c2.801,8.914,6.463,20.067,10.99,33.46l1.4,4.13
		c0.746,2.147,1.633,3.64,2.66,4.479c1.025,0.841,2.355,1.425,3.99,1.75c0.699,0.141,1.225,0.351,1.574,0.631
		c0.35,0.279,0.525,0.607,0.525,0.979c0,0.513-0.607,0.771-1.82,0.771l-4.34-0.141c-2.008-0.14-3.99-0.209-5.949-0.209l-4.761,0.069
		c-0.935,0.046-2.17,0.069-3.71,0.069c-0.561,0-1.016-0.08-1.365-0.244c-0.35-0.163-0.525-0.385-0.525-0.665
		c0-0.326,0.199-0.618,0.596-0.875c0.396-0.256,0.898-0.431,1.505-0.525c1.633-0.28,2.8-0.7,3.5-1.26s0.979-1.306,0.84-2.24
		c-0.047-0.84-0.292-2.11-0.735-3.815c-0.443-1.702-0.875-3.37-1.295-5.004c-0.094-0.233-0.256-0.771-0.49-1.61
		c-0.094-0.326-0.256-0.548-0.489-0.665c-0.233-0.116-0.63-0.175-1.19-0.175h-12.949c-0.467,0-0.864,0.397-1.19,1.19
		c-0.467,1.399-1.004,3.139-1.61,5.215s-0.957,3.441-1.05,4.095c-0.28,2.147,1.097,3.594,4.13,4.34c1.4,0.327,2.1,0.794,2.1,1.399
		c0,0.561-0.629,0.84-1.889,0.84c-1.168,0-2.101-0.023-2.801-0.069l-3.99-0.069c-0.699,0-1.517,0.023-2.449,0.069
		c-0.935,0.046-1.635,0.093-2.101,0.14c-1.307,0.141-2.567,0.211-3.78,0.211C249.757,191.592,249.29,191.51,248.917,191.346z
		 M277.127,171.362c0.279,0,0.513-0.023,0.699-0.07c0.187-0.046,0.281-0.14,0.281-0.28c0-0.046-0.047-0.303-0.141-0.77l-5.18-16.59
		c-0.234-0.746-0.42-1.12-0.561-1.12c-0.094,0-0.257,0.35-0.49,1.05l-6.09,16.66l-0.14,0.56c0,0.234,0.116,0.385,0.351,0.455
		c0.232,0.07,0.582,0.105,1.049,0.105H277.127z"/>
	<path display="inline" fill="#FFFFFF" d="M234.952,254.592c-1.75-0.746-3.255-1.937-4.515-3.57c-1.914-2.381-3.57-4.573-4.97-6.58
		c-1.4-2.006-3.08-4.666-5.04-7.98c-0.607-1.119-1.47-1.982-2.59-2.59c-1.167-0.561-2.637-0.956-4.41-1.189
		c-0.654,0-0.98,0.467-0.98,1.399v12.67c0,1.54,0.385,2.777,1.155,3.71c0.77,0.935,2.041,1.564,3.815,1.891
		c0.7,0.14,1.213,0.314,1.54,0.524c0.326,0.21,0.49,0.479,0.49,0.806c0,0.56-0.607,0.84-1.82,0.84c-0.467,0-2.03-0.07-4.69-0.211
		c-1.167-0.139-2.357-0.209-3.57-0.209c-1.587,0-3.127,0.07-4.62,0.209c-0.467,0-1.19,0.035-2.17,0.105s-1.89,0.105-2.73,0.105
		c-1.214,0-1.82-0.28-1.82-0.84c0-0.326,0.163-0.596,0.49-0.806c0.326-0.21,0.84-0.385,1.54-0.524
		c1.82-0.326,3.103-0.852,3.85-1.575c0.746-0.724,1.12-1.878,1.12-3.466v-30.379c0-1.681-0.094-2.905-0.28-3.676
		c-0.187-0.77-0.56-1.33-1.12-1.68s-1.494-0.618-2.8-0.805c-0.7-0.047-1.225-0.211-1.575-0.49c-0.35-0.28-0.525-0.583-0.525-0.91
		c0-0.279,0.175-0.501,0.525-0.665c0.35-0.163,0.781-0.245,1.295-0.245c1.493,0,2.986,0.047,4.48,0.141l3.36,0.07
		c0.793,0,1.89-0.047,3.29-0.141c1.773-0.186,3.546-0.28,5.32-0.28c5.273,0,9.286,0.957,12.04,2.87c2.753,1.914,4.13,4.76,4.13,8.54
		c0,2.847-0.817,5.192-2.45,7.035c-1.634,1.844-3.64,3.302-6.02,4.375c-0.14,0.047-0.21,0.164-0.21,0.351l0.14,0.56
		c2.8,4.247,5.121,7.571,6.965,9.975c1.843,2.404,4.071,4.795,6.685,7.175c1.213,1.12,2.45,1.82,3.71,2.101
		c1.26,0.28,2.916,0.42,4.97,0.42c0.7,0,1.051,0.327,1.051,0.979c0,1.074-0.678,1.855-2.031,2.346s-2.894,0.734-4.62,0.734
		C238.837,255.711,236.702,255.337,234.952,254.592z M222.772,227.992c1.75-1.913,2.625-4.271,2.625-7.069
		c0-3.313-0.677-5.846-2.03-7.596c-1.354-1.75-3.804-2.625-7.35-2.625c-1.307,0-2.182,0.444-2.625,1.33
		c-0.444,0.887-0.712,2.614-0.805,5.18c-0.094,2.987-0.14,6.697-0.14,11.131c0,1.026,0.268,1.703,0.805,2.029
		c0.536,0.327,1.388,0.49,2.555,0.49C218.7,230.862,221.022,229.906,222.772,227.992z"/>
	<path display="inline" fill="#FFFFFF" d="M255.637,253.751c0-0.605,0.676-1.05,2.03-1.329c1.772-0.373,3.032-0.922,3.78-1.646
		c0.746-0.724,1.119-1.854,1.119-3.396v-31.64c0-1.586-0.326-2.718-0.979-3.396c-0.654-0.676-1.845-1.2-3.57-1.574
		c-1.354-0.28-2.03-0.746-2.03-1.4c0-0.279,0.164-0.501,0.49-0.665c0.326-0.163,0.77-0.245,1.33-0.245
		c1.633,0,3.663,0.047,6.09,0.141c2.334,0.094,4.2,0.14,5.6,0.14c3.127,0,6.977-0.046,11.551-0.14c1.54,0,2.857-0.035,3.955-0.105
		c1.096-0.07,1.715-0.105,1.855-0.105c0.326,0,0.629,0.07,0.91,0.211c0.279,0.14,0.443,0.35,0.49,0.63l0.35,2.1
		c0.514,2.66,0.77,4.574,0.77,5.74c0,0.42-0.105,0.724-0.314,0.91c-0.211,0.187-0.432,0.28-0.666,0.28
		c-0.42,0-0.746-0.28-0.979-0.84c-0.047-0.187-0.199-0.642-0.455-1.365c-0.258-0.724-0.502-1.318-0.736-1.785
		s-0.467-0.84-0.699-1.12c-1.261-1.306-2.848-1.96-4.761-1.96h-7.84c-0.653,0-1.308,0.244-1.96,0.734
		c-0.654,0.49-0.98,1.086-0.98,1.785v14.28c0,0.467,0.141,0.84,0.42,1.12c0.281,0.279,0.631,0.42,1.051,0.42h6.58
		c1.26,0,2.158-0.28,2.695-0.84c0.535-0.561,0.99-1.516,1.364-2.87c0.326-0.933,0.771-1.399,1.33-1.399
		c0.233,0,0.442,0.116,0.63,0.35c0.186,0.234,0.28,0.537,0.28,0.91c-0.187,2.613-0.28,4.316-0.28,5.109c0,1.727,0.07,3.57,0.21,5.53
		v0.28c0,0.746-0.21,1.119-0.63,1.119c-0.747,0-1.307-0.676-1.68-2.029c-0.327-1.26-0.735-2.182-1.225-2.766
		c-0.49-0.582-1.18-0.875-2.065-0.875h-6.511c-0.793,0-1.354,0.129-1.68,0.385c-0.326,0.258-0.49,0.736-0.49,1.436v13.37
		c0,1.587,0.338,2.707,1.016,3.36c0.676,0.654,1.761,0.979,3.255,0.979h5.53c2.705,0,4.689-0.442,5.949-1.33
		c0.746-0.513,1.424-1.19,2.031-2.03c0.605-0.84,1.26-1.982,1.959-3.43c0.373-0.605,0.771-0.886,1.191-0.84
		c0.512,0,0.77,0.374,0.77,1.12c0,0.747-0.234,1.972-0.701,3.675c-0.467,1.704-0.957,3.279-1.469,4.725
		c-0.328,0.748-0.725,1.121-1.189,1.121c-3.269,0-6.769-0.07-10.502-0.211c-1.26-0.047-2.881-0.094-4.864-0.14
		c-1.984-0.046-4.282-0.069-6.896-0.069c-1.307,0-2.637,0.069-3.99,0.209c-2.659,0.141-4.199,0.211-4.619,0.211
		C256.242,254.592,255.637,254.311,255.637,253.751z"/>
</g>
</svg>
